<svg width="824" height="162" viewBox="0 0 824 162" fill="none" xmlns="http://www.w3.org/2000/svg">
<path fill-rule="evenodd" clip-rule="evenodd" d="M288.873 111.19H273.877L265.195 78.6719C264.09 74.7255 263.617 70.1477 263.617 70.1477H263.459C263.459 70.1477 262.827 74.8834 261.723 78.6719L252.883 111.19H237.886L221.312 54.0466H235.834L244.043 88.9324C244.99 93.1945 245.463 98.2458 245.463 98.2458H245.621C245.621 98.2458 246.411 93.1945 247.516 88.9324L256.671 54.0466H269.931L279.086 88.9324C280.191 93.1945 280.981 98.2458 280.981 98.2458H281.139C281.139 98.2458 281.612 93.1945 282.559 88.9324L290.768 54.0466H305.29L288.873 111.19Z" fill="white"/>
<path fill-rule="evenodd" clip-rule="evenodd" d="M345.385 83.5648C334.809 84.0383 325.496 84.9855 325.496 93.6674C325.496 99.0345 329.758 102.192 337.177 102.192C340.176 102.192 343.807 101.718 345.385 101.087V83.5648ZM337.65 112.452C320.444 112.452 311.92 105.664 311.92 93.9832C311.92 78.3556 328.179 75.3563 345.385 74.4092V71.41C345.385 65.4115 341.281 63.2016 334.651 63.2016C329.284 63.2016 322.654 64.9379 318.708 66.5165L315.077 56.7295C319.813 54.6774 328.021 52.6253 336.23 52.6253C350.91 52.6253 358.961 58.3081 358.961 72.9885V108.19C354.857 110.558 346.175 112.452 337.65 112.452Z" fill="white"/>
<path fill-rule="evenodd" clip-rule="evenodd" d="M394.163 133.92H379.009L387.533 111.189L366.064 54.2036H382.323L393.058 90.0366C394.32 94.2986 394.952 99.0343 394.952 99.0343H395.11C395.11 99.0343 395.741 94.2986 397.004 90.0366L407.738 54.2036H423.997L394.163 133.92Z" fill="white"/>
<path fill-rule="evenodd" clip-rule="evenodd" d="M642.783 65.5698C641.678 65.0963 638.679 64.4649 636.153 64.4649C627.156 64.4649 622.42 72.0419 622.42 82.776C622.42 94.2993 627.313 101.087 636.153 101.087C638.679 101.087 641.678 100.614 642.783 99.9821V65.5698ZM636.469 112.453C618 112.453 608.055 101.561 608.055 83.0917C608.055 65.5698 617.211 53.7308 634.733 53.7308C637.732 53.7308 641.047 54.2043 642.941 54.8357V28.0005H657.464V108.191C653.202 110.558 645.151 112.453 636.469 112.453Z" fill="white"/>
<path fill-rule="evenodd" clip-rule="evenodd" d="M701.032 83.5648C690.455 84.0383 681.142 84.9855 681.142 93.6674C681.142 99.0345 685.404 102.192 692.823 102.192C695.822 102.192 699.453 101.718 701.032 101.087V83.5648ZM693.297 112.452C676.091 112.452 667.566 105.664 667.566 93.9832C667.566 78.3556 683.825 75.3563 701.032 74.4092V71.41C701.032 65.4115 696.927 63.2016 690.297 63.2016C684.93 63.2016 678.301 64.9379 674.354 66.5165L670.723 56.7295C675.459 54.6774 683.668 52.6253 691.876 52.6253C706.556 52.6253 714.607 58.3081 714.607 72.9885V108.19C710.503 110.558 701.821 112.452 693.297 112.452Z" fill="white"/>
<path fill-rule="evenodd" clip-rule="evenodd" d="M750.598 133.92H735.444L743.968 111.189L722.5 54.2036H738.758L749.493 90.0366C750.755 94.2986 751.387 99.0343 751.387 99.0343H751.545C751.545 99.0343 752.176 94.2986 753.439 90.0366L764.173 54.2036H780.432L750.598 133.92Z" fill="white"/>
<path fill-rule="evenodd" clip-rule="evenodd" d="M68.6666 112.769C51.3026 112.769 42.6206 105.981 42.6206 94.1421C42.6206 78.988 57.6168 75.5152 74.3493 74.4103C75.1386 74.4103 76.2436 74.5681 77.1907 75.1995C77.1907 75.1995 77.3486 74.0945 77.1907 73.1474C77.0329 72.2003 76.5593 71.2532 76.5593 71.2532C76.5593 65.2547 72.2972 63.0447 65.6673 63.0447C60.1424 63.0447 53.5126 64.7811 49.4083 66.5175L45.9355 56.5727C50.829 54.5206 59.0375 52.3106 67.4037 52.3106C82.2421 52.3106 90.4505 58.1513 90.4505 72.8317V108.349C86.0306 110.875 77.3486 112.769 68.6666 112.769ZM76.5593 83.5658C65.8252 84.0394 56.3539 85.1444 56.3539 93.8263C56.3539 99.3512 60.616 102.35 68.193 102.35C79.4007 102.35 76.5593 83.5658 76.5593 83.5658Z" fill="#F8A221"/>
<path fill-rule="evenodd" clip-rule="evenodd" d="M135.913 111.19V73.6208C135.913 67.9381 132.44 64.4653 125.81 64.4653C122.495 64.4653 119.18 65.0967 117.286 65.8859V111.348H102.921V56.8882C108.92 54.5204 116.181 52.784 125.652 52.784C142.543 52.784 150.435 59.7296 150.435 72.0423V111.032H135.913V111.19Z" fill="#F8A221"/>
<path fill-rule="evenodd" clip-rule="evenodd" d="M186.584 133.92H171.43L179.954 111.189L158.486 54.2036H174.745L185.479 90.0366C186.742 94.2986 187.373 99.0343 187.373 99.0343H187.531C187.531 99.0343 188.162 94.2986 189.425 90.0366L200.159 54.2036H216.418L186.584 133.92Z" fill="#F8A221"/>
<path fill-rule="evenodd" clip-rule="evenodd" d="M462.829 83.5648C452.253 84.0383 442.94 84.9855 442.94 93.6674C442.94 99.0345 447.202 102.192 454.621 102.192C457.62 102.192 461.251 101.718 462.829 101.087V83.5648ZM455.094 112.452C437.888 112.452 429.364 105.664 429.364 93.9832C429.364 78.3556 445.623 75.3563 462.829 74.4092V71.41C462.829 65.4115 458.725 63.2016 452.095 63.2016C446.728 63.2016 440.098 64.9379 436.152 66.5165L432.521 56.7295C437.257 54.6774 445.465 52.6253 453.674 52.6253C468.354 52.6253 476.405 58.3081 476.405 72.9885V108.19C472.3 110.558 463.618 112.452 455.094 112.452Z" fill="#F8A221"/>
<path fill-rule="evenodd" clip-rule="evenodd" d="M522.34 111.19V73.6208C522.34 67.9381 518.867 64.4653 512.238 64.4653C508.923 64.4653 505.608 65.0967 503.713 65.8859V111.348H489.349V56.8882C495.347 54.5204 502.766 52.784 512.08 52.784C528.97 52.784 536.863 59.7296 536.863 72.0423V111.032H522.34V111.19Z" fill="#F8A221"/>
<path fill-rule="evenodd" clip-rule="evenodd" d="M572.064 133.92H556.91L565.435 111.189L543.966 54.2036H560.225L570.96 90.0366C572.222 94.2986 572.854 99.0343 572.854 99.0343H573.012C573.012 99.0343 573.643 94.2986 574.906 90.0366L585.64 54.2036H601.899L572.064 133.92Z" fill="#F8A221"/>
<rect x="3" y="3" width="818" height="156" stroke="#F8A221" stroke-width="6"/>
</svg>
