<svg width="143" height="143" viewBox="0 0 143 143" fill="none" xmlns="http://www.w3.org/2000/svg">
<path fill-rule="evenodd" clip-rule="evenodd" d="M82.6422 129.565C57.0943 130.475 54.7926 127.787 36.4634 126.93C18.1342 126.072 0.182483 117.808 0.250191 95.9923C0.322066 73.1208 0.455751 54.0235 1.02311 34.8256C1.74881 10.27 20.4735 3.46794 51.2967 1.49919C72.2245 0.85336 80.8384 0.704041 106.198 0.53043C135.073 0.339457 141.867 10.6901 142.475 27.6936C143.097 45.079 141.888 65.8638 140.218 86.836C138.327 110.572 130.515 127.315 82.6422 129.565Z" fill="#F8A221"/>
<path fill-rule="evenodd" clip-rule="evenodd" d="M49.4775 11.4885C60.0109 12.0579 79.2939 13.1135 97.3275 15.3982C135.019 20.169 131.52 34.8253 132.286 57.2246C132.679 68.7315 134.102 95.4086 130.523 118.52C126.832 142.36 106.558 144.325 82.6338 141.096C69.7518 139.356 56.881 138.159 47.5088 136.346C14.3105 129.929 -3.03844 128.277 0.767459 95.3877C3.82058 69.0058 5.61816 54.3218 5.61816 54.3218C8.12337 19.8704 16.2557 9.69334 49.4775 11.4885Z" fill="white"/>
<path d="M56 31.4998L62.5 24.9998L78.5 31.4998L84.5 28.9998L99.5001 40.9999L96.5001 60.9998L88.5001 47.4998L66.5001 43.4998L59.0001 44.9997L50.0001 53.9998L52 39L56 31.4998Z" fill="#F8A221"/>
</svg>
