<svg width="24" height="24" viewBox="0 0 24 24" fill="none" xmlns="http://www.w3.org/2000/svg">
<path d="M18.1111 1H5.88889C3.18883 1 1 3.18883 1 5.88889V18.1111C1 20.8112 3.18883 23 5.88889 23H18.1111C20.8112 23 23 20.8112 23 18.1111V5.88889C23 3.18883 20.8112 1 18.1111 1Z" fill="white" stroke="white" stroke-linecap="round" stroke-linejoin="round"/>
<path fill-rule="evenodd" clip-rule="evenodd" d="M9.35559 2.13529C11.7277 2.40796 14.1125 2.55082 16.5005 2.56329C20.1178 2.80491 21.7249 3.86533 21.893 7.56314C22.0742 11.5555 21.7686 14.5806 21.517 17.8067C21.1946 21.9322 18.9222 22.7276 15.2715 22.4826C12.8001 22.1978 8.77697 22.2792 5.78651 21.8327C2.38305 21.3252 1.68232 19.4514 1.77452 16.5745C1.86861 13.6319 1.76065 11.7637 2.15985 8.2598C2.61084 4.29334 3.69285 1.61756 9.35559 2.13529Z" fill="#8F37FF"/>
<path d="M7.30957 12.5605L11.0596 15.8105L17.3096 9.31055" stroke="white" stroke-width="2" stroke-linecap="round" stroke-linejoin="round"/>
</svg>
