<svg width="115" height="41" viewBox="0 0 115 41" fill="none" xmlns="http://www.w3.org/2000/svg">
<path fill-rule="evenodd" clip-rule="evenodd" d="M26.3054 0.348138C25.1856 0.491908 23.2123 0.85556 21.9202 1.15657L19.5711 1.70377L22.0769 1.91457C25.9261 2.23844 28.1459 3.13238 25.1308 3.14428C22.7309 3.15368 17.4017 4.90115 16.8053 5.87434C16.7242 6.00683 18.5114 6.11834 20.7767 6.12241C23.4027 6.12711 25.123 6.26555 25.5223 6.50454C26.0723 6.83343 25.9768 6.88135 24.7393 6.89639C21.602 6.9346 18.1647 8.2896 15.922 10.3719C14.7274 11.4813 14.656 11.6173 15.3426 11.4748C29.8188 8.47284 43.8064 10.5006 54.9719 17.2205C56.4159 18.0897 57.6744 18.8008 57.7687 18.8008C57.9766 18.8008 55.6143 14.3182 54.7147 13.0061C48.1286 3.39925 37.9313 -1.14406 26.3054 0.348138ZM92.3047 15.8637C91.7907 16.3777 92.0745 18.7744 92.6881 19.103C94.8621 20.2666 96.7844 19.021 96.2162 16.8171C95.9625 15.8336 93.0458 15.1226 92.3047 15.8637ZM23.1324 17.7248C16.8936 19.6458 14.7387 26.8468 17.8837 35.2657C20.424 42.0651 28.6332 38.9723 31.1657 30.2616C33.5073 22.2061 29.3994 15.7951 23.1324 17.7248ZM61.4162 20.059L59.1854 22.8833L55.754 22.6747C50.6159 22.3627 50.4042 22.7233 53.2426 26.9446C55.4696 30.2566 55.396 29.5308 53.8913 33.3519C52.1084 37.8801 52.4692 38.2441 57.3305 36.8177C60.8358 35.7891 60.5435 35.7239 63.579 38.2137C67.4423 41.3826 67.9641 41.1358 67.9641 36.1414C67.9641 32.4529 67.8689 32.6114 71.4879 30.2857C75.2625 27.8604 75.1504 27.3267 70.5247 25.691C67.1804 24.5086 67.0122 24.3238 66.2414 20.9933C65.157 16.3075 64.4826 16.1769 61.4162 20.059ZM2.50039 17.9137C0.810552 18.3911 0.832478 18.2702 0.902953 26.6959C0.945239 31.7344 0.838429 35.2215 0.610089 36.2749C0.11551 38.5548 0.48386 38.9811 2.74753 38.7474C5.43436 38.4702 5.44156 38.4546 5.2079 33.3155C5.09701 30.8736 4.91566 28.6172 4.80509 28.3014C4.09595 26.2777 6.0442 29.4688 8.3962 34.1828L11.114 39.6301L12.4747 39.601C13.9916 39.5684 14.4799 39.1036 14.2538 37.9074C13.7254 35.1084 13.4272 28.6776 13.6176 24.1819C13.8695 18.2348 13.7407 17.8611 11.4385 17.8611C8.74889 17.8611 8.50081 18.9 9.49248 26.0049C9.99489 29.6038 9.95542 29.9277 9.14919 28.8386C7.20532 26.2132 6.28163 24.2405 5.47695 20.9977C4.55169 17.2678 4.60244 17.3205 2.50039 17.9137ZM77.2042 17.8041C75.4815 18.0102 75.4818 18.0077 75.4758 25.495C75.4721 29.9766 75.3086 33.4775 75.0129 35.4016C74.4591 39.0049 74.6351 39.2887 77.2934 39.0801C79.6514 38.8953 79.689 38.8179 79.5997 34.3059C79.5568 32.1522 79.5928 30.39 79.6796 30.39C81.4975 30.39 82.7783 32.6308 82.9443 36.1017L83.0768 38.8731L85.3085 38.7816L87.5406 38.6904L87.6358 36.8449C87.834 33.0054 85.4651 28.4092 82.6972 27.2625L81.7528 26.8716L83.001 25.9673C86.6109 23.3522 88.0051 18.7453 85.2465 18.5467C83.5444 18.4243 83.2337 18.6905 82.3639 21.0159C81.3061 23.8443 78.9961 26.0497 79.4459 23.802C80.3421 19.3213 79.6649 17.5096 77.2042 17.8041ZM100.843 17.6262C100.29 22.2897 100.691 37.701 101.383 38.3929C102.47 39.4804 108.304 38.7806 110.672 37.2787C116.962 33.2898 115.183 20.6268 107.958 17.9632C107.138 17.6609 100.874 17.3643 100.843 17.6262ZM35.2322 18.0922C33.9048 18.2864 33.5978 18.642 33.7457 19.8128C34.0946 22.5773 36.6486 37.352 36.8275 37.6411C37.5877 38.8712 41.367 39.4995 43.5032 38.7512C45.3046 38.1201 45.6162 37.3314 47.7881 27.9105C50.1191 17.8006 50.1404 18.1756 47.2165 17.9331C45.1257 17.7599 45.0026 17.9034 44.3273 21.3065C43.4854 25.5501 41.1102 34.3507 40.9461 33.8355C40.8637 33.5771 40.1787 30.1244 39.4238 26.1628C38.0666 19.0401 37.63 17.7803 36.5634 17.9081C36.3483 17.9338 35.7491 18.0168 35.2322 18.0922ZM92.1202 20.9554C91.1733 21.9023 90.6073 38.3152 91.5019 38.8821C92.1468 39.2909 95.0253 39.2116 95.6242 38.7687C96.4687 38.1442 96.6532 21.1148 95.8203 20.6691C94.849 20.1492 92.7651 20.3105 92.1202 20.9554ZM25.8872 22.1579C28.1878 23.6466 28.0353 29.6818 25.6341 32.1588C23.0059 34.8707 20.3541 32.1813 20.3541 26.8046C20.3541 22.6998 23.1268 20.3713 25.8872 22.1579ZM106.973 22.0479C112.283 24.5202 112.301 31.2395 107.006 33.9642C104.749 35.1256 104.934 35.6111 104.709 27.9256C104.491 20.4568 104.348 20.8257 106.973 22.0479ZM62.6393 27.4119C62.6393 27.6484 62.9475 27.94 63.3243 28.0593C63.9511 28.2582 63.9642 28.3096 63.4809 28.6632C63.1903 28.8756 62.9525 29.2571 62.9525 29.5111C62.9525 30.2008 62.5929 30.4282 62.1215 30.037C61.8913 29.846 61.4209 29.7633 61.0763 29.8535C60.5448 29.9925 60.4787 29.9023 60.6397 29.2599C60.7455 28.8389 60.6582 28.2958 60.4433 28.0368C60.1178 27.6446 60.188 27.571 60.8881 27.571C61.3454 27.571 61.8002 27.3605 61.8988 27.1031C62.1078 26.5587 62.6393 26.7804 62.6393 27.4119Z" fill="white"/>
</svg>
