<svg width="212" height="23" viewBox="0 0 212 23" fill="none" xmlns="http://www.w3.org/2000/svg">
<path d="M54.3724 18.055H51.0752L49.1443 10.9941C48.9882 10.3813 48.8718 9.75935 48.7957 9.13204H48.7504C48.6587 9.75888 48.5331 10.3805 48.374 10.9941L46.4361 18.055H43.1389L39.4688 5.6582H42.6719L44.4703 13.2471C44.6146 13.9168 44.724 14.5932 44.798 15.2738H44.8468C44.8468 15.2738 45.0315 14.1696 45.265 13.2471L47.3005 5.6582H50.2213L52.2568 13.2471C52.4903 14.1696 52.675 15.2738 52.675 15.2738H52.7238C52.7238 15.2738 52.8423 14.1696 53.0514 13.2471L54.8499 5.6582H58.053L54.3724 18.055Z" fill="white"/>
<path d="M66.8432 12.0743C64.5045 12.1909 62.4481 12.3966 62.4481 14.2621C62.4481 15.4349 63.3822 16.1002 65.0447 16.1002C65.6542 16.1109 66.2614 16.0252 66.8432 15.8465V12.0743ZM65.1354 18.3327C61.3502 18.3327 59.4576 16.8615 59.4576 14.3307C59.4576 10.9495 63.0337 10.2808 66.8432 10.075V9.43032C66.8432 8.14435 65.93 7.66082 64.4836 7.66082C63.2717 7.69693 62.0761 7.94544 60.9529 8.39468L60.1582 6.27884C61.6453 5.6981 63.2288 5.39347 64.8286 5.38037C68.0561 5.38037 69.8546 6.62519 69.8546 9.79725V17.4342C68.9205 17.9177 67.0279 18.3327 65.1319 18.3327" fill="white"/>
<path d="M77.6061 22.9999H74.2636L76.1597 18.055L71.4125 5.6582H75.013L77.3761 13.4563C77.5626 14.0975 77.7035 14.7506 77.7978 15.411H77.8466C77.9407 14.7508 78.0804 14.0978 78.2649 13.4563L80.628 5.6582H84.204L77.6061 22.9999Z" fill="white"/>
<path d="M132.508 8.14448C132.035 7.98541 131.538 7.90657 131.037 7.91129C129.047 7.91129 127.998 9.54704 127.998 11.8926C127.998 14.3994 129.072 15.8706 131.037 15.8706C131.54 15.8822 132.04 15.796 132.508 15.6168V8.14448ZM131.114 18.3328C127.043 18.3328 124.823 15.9632 124.823 11.9372C124.823 8.12047 126.858 5.5451 130.713 5.5451C131.323 5.5406 131.93 5.62496 132.515 5.79544V0H135.718V17.4343C134.805 17.9178 133.031 18.3328 131.114 18.3328Z" fill="white"/>
<path d="M145.366 12.0743C143.027 12.1909 140.971 12.3966 140.971 14.2621C140.971 15.4349 141.905 16.1002 143.564 16.1002C144.175 16.1111 144.783 16.0254 145.366 15.8465V12.0743ZM143.658 18.3327C139.873 18.3327 137.977 16.8615 137.977 14.3307C137.977 10.9495 141.553 10.2808 145.366 10.075V9.43032C145.366 8.14435 144.453 7.66082 143.003 7.66082C141.791 7.69729 140.595 7.94579 139.472 8.39468L138.681 6.27884C140.169 5.69738 141.754 5.39273 143.355 5.38037C146.582 5.38037 148.381 6.62519 148.381 9.79725V17.4342C147.447 17.9177 145.551 18.3327 143.658 18.3327Z" fill="white"/>
<path d="M156.328 22.9999H152.985L154.878 18.055L150.134 5.6582H153.734L156.094 13.4563C156.281 14.0975 156.422 14.7506 156.516 15.411H156.561C156.657 14.7509 156.798 14.0979 156.983 13.4563L159.346 5.6582H162.922L156.328 22.9999Z" fill="white"/>
<path d="M5.75441 18.4152C1.92046 18.4152 0 16.9235 0 14.3584C0 11.0835 3.32159 10.3256 6.99173 10.0821C7.21669 10.0721 7.43864 10.1361 7.62259 10.2639C7.63446 10.1155 7.63446 9.96645 7.62259 9.81808C7.60012 9.67196 7.553 9.53056 7.48317 9.39972C7.48317 8.0966 6.55954 7.60622 5.09218 7.60622C3.86434 7.64308 2.65316 7.89628 1.51615 8.35379L0.697082 6.21051C2.20472 5.62017 3.81114 5.31197 5.43375 5.30176C8.69958 5.30176 10.5224 6.55686 10.5224 9.75979V17.4893C9.58836 17.9934 7.6679 18.4152 5.75441 18.4152ZM7.49711 12.078C5.13052 12.1946 3.04625 12.4209 3.04625 14.2933C3.04625 15.4798 3.99428 16.1553 5.67425 16.1553C8.11403 16.1553 7.49711 12.078 7.49711 12.078Z" fill="#E83368"/>
<path d="M6.65367 8.91604C6.65436 9.03555 6.61897 9.15258 6.55199 9.25228C6.48501 9.35198 6.38944 9.42987 6.27742 9.47608C6.16539 9.52229 6.04194 9.53473 5.92272 9.51183C5.80349 9.48893 5.69387 9.43172 5.60773 9.34745C5.52159 9.26318 5.46282 9.15565 5.43886 9.03848C5.41491 8.92131 5.42685 8.79978 5.47318 8.6893C5.5195 8.57881 5.59812 8.48435 5.69908 8.41788C5.80003 8.35141 5.91877 8.31592 6.04024 8.31592C6.20233 8.31592 6.35783 8.37903 6.47278 8.49148C6.58772 8.60393 6.65275 8.75656 6.65367 8.91604Z" fill="#E83368"/>
<path d="M20.5918 18.0551V9.8901C20.5918 8.64871 19.8216 7.89084 18.3716 7.89084C17.727 7.88445 17.086 7.98532 16.4756 8.18919V18.0551H13.3004V6.27909C14.8989 5.66045 16.6053 5.35636 18.3228 5.38406C22.0627 5.38406 23.7949 6.89979 23.7949 9.56775V18.0551H20.5918Z" fill="#E83368"/>
<path d="M31.766 22.9999H28.4235L30.3231 18.055L25.5724 5.6582H29.1729L31.5325 13.4563C31.7171 14.0979 31.858 14.7509 31.9542 15.411H31.9995C32.0915 14.7508 32.2301 14.0976 32.4143 13.4563L34.7809 5.6582H38.3569L31.766 22.9999Z" fill="#E83368"/>
<path d="M92.7781 12.0743C90.4429 12.1909 88.383 12.3966 88.383 14.2621C88.383 15.4315 89.3206 16.1174 90.9692 16.1174C91.5786 16.128 92.1858 16.0423 92.7676 15.8636L92.7781 12.0743ZM91.0737 18.3327C87.2851 18.3327 85.3925 16.8615 85.3925 14.3307C85.3925 10.9495 88.9685 10.2808 92.7781 10.075V9.43032C92.7781 8.14435 91.8684 7.66082 90.4185 7.66082C89.2066 7.69729 88.0111 7.94579 86.8878 8.39468L86.0896 6.27884C87.5777 5.69768 89.1625 5.39305 90.7635 5.38037C93.991 5.38037 95.793 6.62519 95.793 9.79725V17.4342C94.8554 17.9177 92.9628 18.3327 91.0703 18.3327" fill="#E83368"/>
<path d="M105.918 18.0551V9.89009C105.918 8.6487 105.144 7.89083 103.698 7.89083C103.053 7.88444 102.412 7.98531 101.802 8.18918V18.0551H98.6371V6.27908C100.237 5.66051 101.944 5.35644 103.663 5.38405C107.403 5.38405 109.135 6.89978 109.135 9.56774V18.0551H105.918Z" fill="#E83368"/>
<path d="M116.894 22.9999H113.548L115.444 18.055L110.697 5.6582H114.297L116.66 13.4563C116.845 14.0978 116.984 14.7508 117.078 15.411H117.127C117.221 14.7508 117.361 14.0978 117.545 13.4563L119.898 5.6582H123.474L116.894 22.9999Z" fill="#E83368"/>
<path d="M165.853 18.264C165.455 18.264 165.067 18.1479 164.736 17.9305C164.405 17.7131 164.147 17.4041 163.995 17.0425C163.843 16.681 163.803 16.2831 163.881 15.8993C163.958 15.5155 164.15 15.1629 164.431 14.8862C164.712 14.6095 165.071 14.421 165.461 14.3447C165.851 14.2683 166.255 14.3075 166.623 14.4573C166.99 14.607 167.304 14.8606 167.525 15.186C167.746 15.5114 167.864 15.894 167.864 16.2853C167.86 16.8087 167.646 17.3094 167.27 17.6795C166.894 18.0496 166.385 18.2595 165.853 18.264Z" fill="#E83368"/>
<path d="M175.665 18.3327C172.719 18.3327 170.032 16.2751 170.032 11.8445C170.032 7.41392 172.702 5.38037 175.665 5.38037C177.163 5.38037 178.212 5.7233 179.011 6.23426L178.003 8.48727C177.451 8.12294 176.796 7.93824 176.132 7.95917C174.567 7.95917 173.343 9.24514 173.343 11.8239C173.343 14.4027 174.626 15.6887 176.132 15.6887C176.799 15.7021 177.454 15.509 178.003 15.1366L178.993 17.4891C178.174 18.0172 177.146 18.3395 175.647 18.3395" fill="#E83368"/>
<path d="M186.403 7.84259C184.72 7.84259 183.876 9.33774 183.876 11.8239C183.876 14.3102 184.727 15.7744 186.403 15.7744C188.08 15.7744 188.927 14.3033 188.927 11.8205C188.927 9.33774 188.087 7.83916 186.403 7.83916V7.84259ZM186.403 18.3292C182.73 18.3292 180.698 15.5447 180.698 11.8445C180.698 8.14436 182.73 5.37695 186.403 5.37695C190.077 5.37695 192.105 8.14093 192.105 11.8445C192.105 15.5481 190.073 18.3292 186.403 18.3292Z" fill="#E83368"/>
<path d="M208.797 18.0547V9.79709C208.797 8.57971 208.002 7.89043 206.706 7.89043C206.025 7.86148 205.358 8.08274 204.834 8.51112V18.0547H201.634V9.65992C201.634 8.5557 200.791 7.89043 199.435 7.89043C198.84 7.87626 198.248 7.97764 197.692 8.18877V18.0547H194.514V6.27868C196.024 5.69204 197.633 5.38848 199.257 5.38364C201.293 5.38364 202.579 6.00434 203.304 6.64561C204.547 5.80214 206.026 5.361 207.535 5.38364C210.324 5.38364 212 6.96796 212 9.47817V18.0513L208.797 18.0547Z" fill="#E83368"/>
</svg>
