<svg width="143" height="143" viewBox="0 0 143 143" fill="none" xmlns="http://www.w3.org/2000/svg">
<path fill-rule="evenodd" clip-rule="evenodd" d="M82.6422 129.565C57.0943 130.475 54.7926 127.787 36.4634 126.93C18.1342 126.072 0.182483 117.808 0.250191 95.9923C0.322066 73.1208 0.455751 54.0235 1.02311 34.8256C1.74881 10.27 20.4735 3.46794 51.2967 1.49919C72.2245 0.85336 80.8384 0.704041 106.198 0.53043C135.073 0.339457 141.867 10.6901 142.475 27.6936C143.097 45.079 141.888 65.8638 140.218 86.836C138.327 110.572 130.515 127.315 82.6422 129.565Z" fill="#F8A221"/>
<path fill-rule="evenodd" clip-rule="evenodd" d="M49.4775 11.4885C60.0109 12.0579 79.2939 13.1135 97.3275 15.3982C135.019 20.169 131.52 34.8253 132.286 57.2246C132.679 68.7315 134.101 95.4086 130.523 118.52C126.832 142.36 106.558 144.325 82.6338 141.096C69.7518 139.356 56.881 138.159 47.5088 136.346C14.3105 129.929 -3.03844 128.277 0.767459 95.3877C3.82058 69.0058 5.61816 54.3218 5.61816 54.3218C8.12337 19.8704 16.2557 9.69334 49.4775 11.4885Z" fill="white"/>
<path d="M56.0002 31.4998L62.5002 24.9998L78.5002 31.4998L84.5002 28.9998L99.5003 40.9999L96.5002 60.9998L88.5002 47.4998L66.5002 43.4998L59.0003 44.9997L50.0002 53.9998L52.0002 39L56.0002 31.4998Z" fill="#F8A221"/>
<path fill-rule="evenodd" clip-rule="evenodd" d="M82.6723 87.8724C88.3497 85.1146 92.744 80.2726 94.9397 74.3551L96.2296 74.5496C98.1516 74.8412 100.111 74.3588 101.678 73.208C103.245 72.0572 104.291 70.3319 104.588 68.4107C104.738 67.4615 104.695 66.4917 104.463 65.5593C104.23 64.6269 103.812 63.7509 103.233 62.9836C102.258 61.6356 100.838 60.6743 99.2244 60.2683L101.117 47.81C101.409 45.907 101.321 43.9649 100.857 42.0963C100.393 40.2277 99.5625 38.4698 98.414 36.9245C98.3316 36.8121 98.2365 36.7096 98.1307 36.619L83.9484 25.1607C83.7257 24.9787 83.4589 24.8587 83.175 24.813C82.8911 24.7673 82.6001 24.7975 82.3316 24.9004C82.0631 25.0033 81.8265 25.1754 81.6459 25.3991C81.4652 25.6229 81.3469 25.8903 81.3029 26.1745L80.8723 29.0079L60.9147 21.4628C60.6539 21.367 60.3731 21.3388 60.0985 21.3806C59.8238 21.4225 59.5642 21.5332 59.3439 21.7023C59.1251 21.8685 58.9525 22.0878 58.8421 22.3393C58.7318 22.5909 58.6874 22.8664 58.7133 23.1398L59.1511 27.7509L54.7643 27.0843C54.5085 27.0438 54.2467 27.066 54.0013 27.1488C53.7559 27.2316 53.5343 27.3727 53.3553 27.5599C53.1741 27.7439 53.0392 27.9682 52.9617 28.2145C52.8841 28.4608 52.8663 28.7221 52.9095 28.9766L53.565 32.6988C52.5864 33.1448 51.735 33.8287 51.0885 34.6881C50.442 35.5475 50.0209 36.5551 49.8636 37.619L47.6143 52.428C45.9597 52.3345 44.3249 52.8262 42.9963 53.8169C42.2118 54.3779 41.5486 55.0914 41.0465 55.9148C40.5443 56.7381 40.2134 57.6544 40.0737 58.6086C39.7864 60.5316 40.2732 62.49 41.4274 64.0546C42.5815 65.6193 44.3089 66.6625 46.231 66.9558L47.5213 67.1502C47.8603 73.4533 50.6184 79.3825 55.2209 83.7024C50.6337 84.0657 46.2875 85.9052 42.8332 88.9454C39.379 91.9856 37.0024 96.0629 36.0595 100.567C36.0595 100.567 33.2933 114.015 33.2647 114.303C33.236 114.591 33.0624 115.285 34.1041 115.459C35.1457 115.633 36.0138 116.153 36.361 114.774C37.9446 115.014 90.6462 123.026 91.2221 123.114C91.2221 123.792 91.5693 124.14 92.9582 124.313C94.3471 124.487 94.48 124.024 94.5518 123.616C94.6237 123.208 95.9612 109.668 95.9612 109.668C96.3984 105.087 95.3399 100.487 92.9443 96.5582C90.5487 92.6292 86.9448 89.5818 82.6723 87.8724ZM96.157 69.5982L97.1348 63.1606L97.9414 63.2822C98.4712 63.361 98.9802 63.5436 99.4392 63.8195C99.8983 64.0954 100.298 64.4592 100.617 64.89C100.935 65.3208 101.165 65.8102 101.294 66.3301C101.422 66.85 101.447 67.3901 101.367 67.9196C101.286 68.4491 101.102 68.9576 100.825 69.4158C100.548 69.874 100.183 70.273 99.7508 70.5899C99.319 70.9068 98.8289 71.1353 98.3086 71.2625C97.7884 71.3896 97.2481 71.4128 96.7188 71.3308L95.8317 71.1954C95.9445 70.6711 96.0737 70.1468 96.157 69.5982ZM46.7216 63.7371C46.1919 63.6583 45.6829 63.4756 45.2238 63.1997C44.7648 62.9238 44.3647 62.56 44.0465 62.1292C43.7283 61.6984 43.4982 61.209 43.3695 60.6891C43.2408 60.1693 43.2159 59.6291 43.2964 59.0996C43.3768 58.5701 43.5609 58.0617 43.8382 57.6035C44.1155 57.1453 44.4805 56.7462 44.9123 56.4293C45.3441 56.1124 45.8341 55.8839 46.3544 55.7567C46.8747 55.6296 47.4149 55.6064 47.9442 55.6884L48.7504 55.81L47.7723 62.2475C47.6893 62.7961 47.6571 63.3343 47.6088 63.8725L46.7216 63.7371ZM50.8536 52.8377L53.0907 38.1086C53.1793 37.5104 53.4352 36.9494 53.829 36.4905C54.2227 36.0315 54.7383 35.6933 55.3161 35.5149L55.9084 35.31C56.2813 35.1893 56.5981 34.9382 56.8006 34.6026C57.0032 34.2671 57.0778 33.8697 57.0109 33.4836L56.5185 30.6433L60.7279 31.2822C60.9724 31.321 61.2226 31.3037 61.4594 31.2315C61.6963 31.1593 61.9136 31.0341 62.0949 30.8655C62.2728 30.6934 62.4101 30.4838 62.4967 30.2519C62.5833 30.0201 62.6171 29.7719 62.5956 29.5253L62.2108 25.4315L81.6053 32.7752C82.0095 32.9284 82.4579 32.915 82.8522 32.7379C83.2465 32.5609 83.5544 32.2346 83.7084 31.8308C83.7494 31.7219 83.7789 31.609 83.7963 31.494L84.1043 29.4662L95.9199 39.0148C97.6311 41.4221 98.3385 44.4008 97.8925 47.3204L96.0123 59.6954L96.0876 59.7093L93.7588 52.553C93.1123 50.5327 91.9122 48.7342 90.2948 47.3618C88.6773 45.9894 86.7074 45.0981 84.6088 44.7891L65.556 41.8968C63.6413 41.5987 61.6822 41.7951 59.8647 42.4673C58.0472 43.1394 56.4317 44.2649 55.1716 45.7371C55.1181 45.7966 55.0697 45.8605 55.0268 45.928L50.7136 52.8169L50.8536 52.8377ZM50.9991 62.7405L52.0011 56.1433C52.3781 56.0283 52.703 55.7851 52.9195 55.4558L57.7171 47.7683C58.6198 46.743 59.7667 45.9623 61.0516 45.4985C62.3365 45.0348 63.7177 44.903 65.0671 45.1155L84.1199 48.0114C85.6173 48.2316 87.0231 48.8668 88.178 49.845C89.3329 50.8232 90.1907 52.1053 90.6543 53.5461L93.2977 61.671C93.4025 62.0183 93.6285 62.3165 93.9345 62.5114L92.9324 69.1086C92.0879 74.6694 89.069 79.6671 84.5398 83.0021C80.0106 86.3371 74.342 87.7362 68.7812 86.8917C63.2203 86.0472 58.2227 83.0283 54.8877 78.4991C51.5527 73.9699 50.1536 68.3014 50.998 62.7405H50.9991ZM75.2557 90.1051C72.8061 93.3047 70.0265 96.2375 66.9629 98.8551C64.8223 95.4494 63.044 91.8289 61.657 88.053C63.7643 89.0351 66.0002 89.7132 68.298 90.0669C70.6028 90.4163 72.9461 90.4292 75.2546 90.1051H75.2557ZM36.361 114.774L39.2619 101.22C40.1455 96.9929 42.5189 93.2244 45.9492 90.6015C49.3796 87.9787 53.6384 86.6761 57.949 86.9315C59.2713 93.1085 64.9595 101.827 65.2282 102.234C65.4653 102.593 65.8352 102.843 66.2566 102.93C66.6781 103.016 67.1167 102.932 67.4761 102.695C67.524 102.664 67.5706 102.629 67.615 102.595C67.9914 102.289 75.9539 95.7092 79.0932 90.1433C83.2883 91.1764 86.9719 93.6839 89.4717 97.2077C91.9714 100.732 93.1205 105.037 92.7091 109.338L91.2221 123.114L36.361 114.774ZM62.532 62.8447C62.9593 62.91 63.395 62.8029 63.7433 62.547C64.0916 62.2911 64.324 61.9074 64.3893 61.4801L64.8782 58.2614C64.9303 57.8396 64.8158 57.4141 64.5591 57.0754C64.3024 56.7368 63.9237 56.5116 63.5035 56.4478C63.0833 56.384 62.6548 56.4866 62.3091 56.7339C61.9635 56.9811 61.7279 57.3535 61.6525 57.7717L61.1636 60.9905C61.1317 61.2021 61.1419 61.418 61.1934 61.6257C61.2449 61.8334 61.3369 62.0289 61.464 62.2011C61.5911 62.3733 61.7508 62.5187 61.9342 62.6291C62.1175 62.7396 62.3204 62.8128 62.532 62.8447ZM81.8859 65.7857C82.3131 65.8509 82.7488 65.7438 83.0971 65.4879C83.4454 65.232 83.6778 64.8483 83.7432 64.4211L84.2321 61.2023C84.2876 60.7791 84.1752 60.351 83.9188 60.0097C83.6624 59.6684 83.2825 59.4412 82.8606 59.3767C82.4386 59.3122 82.0082 59.4156 81.6616 59.6647C81.315 59.9138 81.0798 60.2888 81.0064 60.7092L80.5175 63.9315C80.4855 64.1431 80.4956 64.3589 80.5471 64.5667C80.5986 64.7744 80.6906 64.97 80.8177 65.1422C80.9448 65.3144 81.1046 65.4598 81.2879 65.5703C81.4713 65.6807 81.6746 65.7539 81.8862 65.7857H81.8859ZM81.564 76.1537C81.7633 75.7756 81.8064 75.3343 81.6838 74.9248C81.5613 74.5153 81.283 74.1703 80.9087 73.9638C80.5344 73.7573 80.0941 73.7059 79.6823 73.8206C79.2706 73.9353 78.9203 74.2071 78.7067 74.5774C77.5748 76.6017 74.0421 77.7683 70.2529 77.1919C66.4636 76.6156 63.4359 74.4558 62.9563 72.1849C62.864 71.7663 62.6106 71.4009 62.251 71.1676C61.8914 70.9343 61.4545 70.8518 61.0346 70.938C60.6147 71.0242 60.2455 71.2721 60.0069 71.6283C59.7683 71.9844 59.6794 72.4201 59.7595 72.8412C60.5199 76.4767 64.4758 79.6085 69.7636 80.4106C75.0515 81.2127 79.7578 79.4002 81.5633 76.1537H81.564Z" fill="#8F37FF"/>
</svg>
