<svg id="Слой_1" data-name="Слой 1" xmlns="http://www.w3.org/2000/svg" viewBox="0 0 663.44 510.42"><defs><style>.cls-1{fill:#fff;fill-rule:evenodd;}</style></defs><path class="cls-1" d="M410.83,45.58c50,.47,284.65-.89,294.26-1.63,33.18-2.57,46.66,5.7,46.39,35.48,0,2.42.13,7.46.34,14.08.68,21.92,1.92,421.21-1,440.82-1.73,11.52-10,20.79-28.12,19.48s-566.39-3.56-595.6-2.56-37-11.38-37.7-24.62c-.57-11.45.78-415.11,1.63-442.53.26-8.19.47-14.93.57-18.93C91.86,53,98,44.91,121.9,44.8l14.66,0c22.34,0,56.55,0,86-.89,25.85-.75,82.93.14,132.08.91C375.91,45.13,395.71,45.44,410.83,45.58ZM183.42,535c-28.81-.39-48.53-.66-54.47-.56-9.38.15-20.29-6.48-20-18.41,0,0,1.24-424.22,2-436.44-.15-11.9,6.95-14.94,23.42-15.18,21.25-.67,45.13-.78,61.66-.85,7.92,0,14.16-.06,17.6-.14,10.63-.25,217.22-1.89,217.22-1.89s271.56.88,282.2,1.94c19.33,1.94,20.29,15.8,20,28.28-.2,7.29.7,382.82,1.49,396.68.57,9.85,1.09,18.86,1.14,23.49.11,11.15-5.07,24.27-26.14,23.31-4.51-.21-32.08,0-73,.39l-10.24.09c-53.92.47-127.53,1.08-201.66,1.18C332.86,537.05,240.38,535.8,183.42,535Z" transform="translate(-89.22 -43.51)"/></svg>