<svg width="142" height="137" viewBox="0 0 142 137" fill="none" xmlns="http://www.w3.org/2000/svg">
<path fill-rule="evenodd" clip-rule="evenodd" d="M107.971 125.975C97.6935 128.347 75.0525 132.673 57.0921 135.479C19.5539 141.333 18.856 126.281 11.9154 104.968C8.35044 94.0239 6.8855 76.0865 3.92162 52.8886C0.86606 28.9615 19.8008 21.4545 43.6834 17.9302C56.5414 16.0309 65.7695 10.149 75.2772 9.29135C108.954 6.2601 126.082 3.04483 131.535 35.6976C135.91 61.8955 138.25 72.6698 138.25 72.6698C145.385 106.468 140.389 118.5 107.971 125.975Z" fill="#F8A221"/>
<path fill-rule="evenodd" clip-rule="evenodd" d="M42.743 5.66258C64.6528 2.55842 65.8389 1.53409 81.6965 0.607007C97.5542 -0.320077 117.233 8.6313 119.16 27.4195C121.179 47.1139 125.927 70.1625 127.186 86.7424C128.795 107.947 113.294 115.506 86.9382 120.01C68.9799 122.468 61.5781 123.381 39.7618 125.836C14.9208 128.631 8.12985 120.336 6.05937 105.756C3.94131 90.8431 1.00694 69.3674 0.538534 51.159C0.00485364 30.5549 1.73402 11.9577 42.743 5.66258Z" fill="white"/>
<circle cx="30" cy="32" r="16" fill="#F8A221"/>
<path fill-rule="evenodd" clip-rule="evenodd" d="M114.535 86.8265C114.361 86.6529 109.438 83.0616 109.438 83.0616L109.424 83.0511L109.41 83.0407C107.548 81.6754 106.113 79.8088 105.271 77.6588C103.147 71.4818 100.158 65.6376 96.3913 60.3011L96.3267 60.2074L96.2573 60.1206C91.5866 54.3328 86.4061 48.9757 80.7781 44.1136L76.7965 24.94C76.1623 21.9425 74.3673 19.318 71.8038 17.64C69.2403 15.9621 66.1168 15.3671 63.116 15.9851L44.459 19.8601C42.5147 17.5583 40.0305 15.774 37.2284 14.6664C34.4262 13.5587 31.3934 13.1624 28.4007 13.5127C25.4081 13.863 22.5488 14.9491 20.0782 16.6739C17.6076 18.3987 15.6027 20.7087 14.2425 23.3973C12.8823 26.0859 12.2092 29.0695 12.2833 32.0817C12.3574 35.0939 13.1763 38.0408 14.6671 40.6593C16.1578 43.2778 18.2738 45.4863 20.8262 47.0876C23.3786 48.6888 26.2878 49.6331 29.2941 49.8358L40.6361 104.45C41.2704 107.448 43.0655 110.072 45.6289 111.75C48.1924 113.428 51.3158 114.023 54.3167 113.405L82.1458 107.624C82.4854 107.555 82.8174 107.464 83.1434 107.367C83.1434 107.367 85.0208 106.961 87.8552 107.367C90.6896 107.774 90.5764 107.66 91.7646 107.985C92.9528 108.31 95.2209 109.755 95.3292 109.836C95.4375 109.917 96.3055 110.785 97.5208 109.396C98.7361 108.007 98.3593 107.664 97.868 107.313C100.739 103.873 104.932 98.3312 104.932 98.3312C104.932 98.3312 109.583 93.0123 112.451 89.6043C112.799 89.7779 113.493 90.1251 114.361 88.9098C115.229 87.6945 114.708 87.0001 114.535 86.8265ZM63.7924 19.249C65.927 18.811 68.1483 19.2352 69.9714 20.4288C71.7945 21.6225 73.0715 23.4888 73.5236 25.6206L76.7476 41.1448C76.2659 41.0137 75.7615 40.9881 75.269 41.0696C74.7764 41.1511 74.3072 41.3378 73.8934 41.6171L71.5396 30.2837C71.4484 29.8508 71.1892 29.4717 70.8189 29.2296C70.4486 28.9875 69.9974 28.902 69.5642 28.9921L48.725 33.3184C49.0614 29.6827 48.2953 26.03 46.5264 22.8358L63.7924 19.249ZM48.0326 36.867L68.6288 32.5893L71.2677 45.3011C71.0151 46.1795 70.9451 47.1005 71.0621 48.007C71.1791 48.9135 71.4806 49.7865 71.9479 50.572C72.1524 50.9331 72.3674 51.2872 72.5847 51.6448L80.3927 89.2421L80.3701 89.2456L48.6257 95.8393L48.6031 95.8429L38.6615 47.9713C40.8977 46.8567 42.8826 45.2967 44.4941 43.3872C46.1056 41.4777 47.3098 39.2588 48.0326 36.867ZM16.0695 34.6692C15.4785 31.8615 15.7176 28.9424 16.7573 26.2682C17.7971 23.594 19.5926 21.2802 21.9249 19.609C24.2572 17.9379 27.0255 16.9816 29.892 16.8569C32.7585 16.7322 35.5994 17.4445 38.068 18.9068C40.5367 20.3691 42.5264 22.5181 43.7945 25.0919C45.0625 27.6657 45.5542 30.553 45.2093 33.4014C44.8645 36.2499 43.6982 38.9364 41.8526 41.1332C40.007 43.3301 37.5619 44.9424 34.8156 45.7733C34.399 45.8983 33.9754 46.0094 33.5417 46.0997C31.9008 46.4378 30.2146 46.4965 28.5542 46.2733C25.529 45.8668 22.7041 44.5326 20.4684 42.4546C18.2326 40.3765 16.6958 37.6566 16.0695 34.6692ZM85.4681 102.235L85.2878 102.405C84.2072 103.379 82.8879 104.049 81.4642 104.346L53.6368 110.124C51.5025 110.564 49.281 110.14 47.4576 108.947C45.6342 107.754 44.3572 105.888 43.9056 103.756L32.6903 49.7455C33.2087 49.683 33.7281 49.6067 34.2486 49.4956C34.6816 49.4088 35.1052 49.2977 35.5243 49.1796L45.6941 98.1483C45.7847 98.5818 46.0436 98.9617 46.414 99.2045C46.7845 99.4474 47.2361 99.5333 47.6698 99.4434L82.6861 92.1692C82.9009 92.1252 83.105 92.0391 83.2865 91.9161C83.4681 91.7931 83.6236 91.6354 83.7441 91.4522C83.8646 91.269 83.9477 91.0639 83.9888 90.8485C84.0299 90.6331 84.028 90.4116 83.9833 90.1969L77.2573 57.808C77.4399 58.0129 77.6073 58.2004 77.7535 58.3601V58.3636L78.4059 59.072C79.9925 60.7939 81.1342 62.8775 81.7316 65.1414L87.8552 94.6276C88.1355 95.994 88.0635 97.4092 87.6458 98.7402C87.2282 100.071 86.4788 101.274 85.4681 102.235ZM112.451 89.6043C109.58 93.0154 104.925 98.3391 104.925 98.3391C104.925 98.3391 100.736 103.876 97.868 107.313C97.3767 106.961 97.3767 106.961 97.3767 106.961C97.3767 106.961 93.866 105.248 91.9653 104.708C90.0646 104.169 89.7382 104.44 88.3285 104.322C89.6351 103.113 90.6074 101.588 91.151 99.8929C91.6947 98.1981 91.7914 96.3914 91.4316 94.6483L85.4059 65.6344C85.2366 64.7046 84.9937 63.7897 84.6795 62.8984C84.6232 62.6285 84.5351 62.3662 84.417 62.1171L83.9882 61.2108C83.7354 60.6761 83.4564 60.153 83.151 59.6414L83.1184 59.5893C82.9833 59.3636 82.8431 59.1448 82.6983 58.9261C82.6743 58.8914 82.6507 58.8532 82.6264 58.8185C82.4701 58.5859 82.309 58.3601 82.1403 58.1344C82.1229 58.1101 82.1056 58.0893 82.0875 58.065C81.9405 57.8705 81.7895 57.6796 81.6344 57.4921C81.5903 57.44 81.5462 57.3845 81.5014 57.3324C81.3278 57.1241 81.149 56.9192 80.9642 56.7178C80.9583 56.7074 80.9508 56.698 80.942 56.69C80.9361 56.6826 80.9298 56.6756 80.9229 56.6691C80.9108 56.6552 80.8958 56.6379 80.8778 56.6206C80.8688 56.6101 80.8576 56.5962 80.8472 56.5858C80.8208 56.558 80.791 56.5268 80.7566 56.4886C80.6726 56.3983 80.5646 56.2802 80.4375 56.1448C80.4239 56.1277 80.4091 56.1115 80.3934 56.0963C80.3444 56.0407 80.2927 55.9851 80.2385 55.9261C80.217 55.9018 80.1952 55.8775 80.1729 55.8532C80.1215 55.7977 80.0688 55.7352 80.0125 55.6761C79.9882 55.6483 79.9639 55.6206 79.9389 55.5928C79.8629 55.5095 79.784 55.4192 79.7017 55.3254C79.2438 54.8081 78.6983 54.1691 78.1299 53.4608L78.0757 53.3914C77.0002 52.0705 76.0305 50.6668 75.1757 49.1934C75.1028 49.0684 75.0257 48.947 74.9549 48.822C74.8903 48.7143 74.8347 48.6066 74.7837 48.499C74.7719 48.4712 74.7601 48.4469 74.749 48.4226C74.6526 48.2009 74.5811 47.9691 74.5358 47.7316C74.5326 47.7143 74.5292 47.697 74.5261 47.6796C74.4839 47.4331 74.4703 47.1826 74.4858 46.933C74.4858 46.9295 74.4858 46.9261 74.4858 46.9227C74.5115 46.5365 74.6056 46.1579 74.7635 45.8045V45.8012C74.8988 45.4985 75.0799 45.2185 75.3007 44.9712C75.4312 44.8297 75.6111 44.7436 75.8032 44.7307C75.9953 44.7177 76.185 44.779 76.3333 44.9018C76.8226 45.3081 77.3056 45.7213 77.7865 46.131C78.4399 46.69 79.0892 47.2525 79.7309 47.8254L79.9889 48.0546C80.657 48.6518 81.3186 49.2572 81.974 49.8706C86.1177 53.7383 89.985 57.8919 93.5472 62.3011C97.1388 67.3882 99.9862 72.9618 102.003 78.8532C103.082 81.6436 104.937 84.0667 107.349 85.8358L111.999 89.3185C112.077 89.3778 112.104 89.4306 112.451 89.6043ZM47.4368 61.7039L49.2681 70.5199C49.3793 71.0499 49.6961 71.5141 50.149 71.8109C50.6019 72.1077 51.1541 72.2128 51.6844 72.1032L68.1146 68.69C68.6447 68.5798 69.1095 68.2638 69.407 67.8114C69.7045 67.3591 69.8105 66.8072 69.7017 66.2768L67.8705 57.4573C67.759 56.9277 67.442 56.464 66.989 56.1678C66.536 55.8716 65.984 55.7672 65.4542 55.8775L62.85 56.4191C62.6358 55.7709 62.1906 55.2241 61.5993 54.8828C61.008 54.5416 60.3119 54.4297 59.6434 54.5685L53.8292 55.7768C53.1607 55.9149 52.5665 56.2942 52.1599 56.8424C51.7533 57.3906 51.5628 58.0693 51.6247 58.749L49.0205 59.2907C48.4908 59.4013 48.0266 59.7174 47.7297 60.1698C47.4328 60.6222 47.3275 61.1739 47.4368 61.7039ZM49.8413 61.5511L53.2608 60.8393C53.4139 60.8078 53.5594 60.7465 53.6889 60.6588C53.8183 60.5711 53.9292 60.4587 54.0152 60.3281C54.1011 60.1975 54.1605 60.0512 54.1899 59.8976C54.2193 59.7441 54.2181 59.5861 54.1865 59.433L54.0073 58.5719C53.9875 58.4692 54.0086 58.3628 54.0659 58.2753C54.1233 58.1878 54.2125 58.1261 54.3146 58.1032L60.1292 56.8984C60.2316 56.8775 60.3381 56.8979 60.4255 56.9551C60.513 57.0123 60.5743 57.1017 60.5962 57.2039L60.7754 58.065C60.8073 58.218 60.8692 58.3633 60.9573 58.4924C61.0455 58.6215 61.1583 58.7319 61.2892 58.8174C61.4201 58.9029 61.5666 58.9616 61.7203 58.9904C61.8739 59.0192 62.0318 59.0175 62.1847 58.9852L65.6042 58.2768L67.2972 66.4296L51.5333 69.7039L49.8413 61.5511ZM57.634 59.4851C56.8721 59.6453 56.1748 60.0276 55.6301 60.5839C55.0854 61.1402 54.7178 61.8455 54.5738 62.6106C54.4297 63.3757 54.5157 64.1663 54.8208 64.8826C55.126 65.5989 55.6365 66.2086 56.2881 66.6348C56.9396 67.061 57.7028 67.2845 58.4814 67.2771C59.2599 67.2697 60.0187 67.0318 60.6621 66.5933C61.3054 66.1548 61.8043 65.5354 62.0958 64.8135C62.3872 64.0916 62.4582 63.2995 62.2997 62.5372C62.0843 61.5146 61.4723 60.619 60.5977 60.0468C59.7231 59.4747 58.6573 59.2727 57.634 59.4851ZM58.7514 64.8671C58.4496 64.929 58.1361 64.9001 57.8507 64.784C57.5653 64.6679 57.3207 64.4697 57.1479 64.2147C56.975 63.9596 56.8816 63.6591 56.8795 63.351C56.8773 63.0428 56.9666 62.741 57.1359 62.4836C57.3053 62.2262 57.5471 62.0247 57.8309 61.9047C58.1146 61.7846 58.4276 61.7514 58.7303 61.8091C59.0329 61.8669 59.3117 62.0131 59.5313 62.2292C59.751 62.4453 59.9016 62.7216 59.9642 63.0233C60.0474 63.4286 59.9664 63.8503 59.739 64.196C59.5116 64.5416 59.1565 64.7829 58.7514 64.8671ZM31.0299 38.0893C31.3453 38.0238 31.6222 37.8367 31.8007 37.5684L38.2396 27.7803C38.3271 27.6466 38.3875 27.4971 38.4173 27.3401C38.447 27.1832 38.4455 27.0219 38.413 26.8655C38.3804 26.7091 38.3173 26.5607 38.2274 26.4287C38.1374 26.2967 38.0223 26.1836 37.8887 26.096C37.7551 26.0085 37.6055 25.9482 37.4486 25.9184C37.2916 25.8887 37.1303 25.8901 36.974 25.9227C36.8176 25.9553 36.6691 26.0184 36.5371 26.1083C36.4051 26.1983 36.2921 26.3133 36.2045 26.4469L30.4337 35.2212L29.5556 34.6449L26.0868 32.374L23.6104 30.756C23.4771 30.6682 23.3277 30.6076 23.1709 30.5775C23.0141 30.5475 22.8529 30.5487 22.6966 30.5809C22.5402 30.6132 22.3917 30.6759 22.2596 30.7656C22.1275 30.8552 22.0143 30.97 21.9266 31.1034C21.8388 31.2368 21.7782 31.3861 21.7482 31.5429C21.7181 31.6997 21.7193 31.8608 21.7515 32.0172C21.7838 32.1736 21.8465 32.3221 21.9362 32.4542C22.0258 32.5863 22.1406 32.6994 22.274 32.7872L26.3017 35.4226L30.1163 37.9157C30.1584 37.9421 30.2024 37.9653 30.2479 37.9852C30.4898 38.1055 30.7649 38.1421 31.0299 38.0893Z" fill="#8F37FF"/>
</svg>
