<svg width="573" height="203" viewBox="0 0 573 203" fill="none" xmlns="http://www.w3.org/2000/svg">
<path fill-rule="evenodd" clip-rule="evenodd" d="M10.4634 90.1746C1.97619 92.5687 2.08632 91.9624 2.44028 134.22C2.65265 159.49 2.11621 176.979 0.96937 182.262C-1.51465 193.696 0.335385 195.834 11.7046 194.663C25.1992 193.272 25.2354 193.194 24.0618 167.42C23.5049 155.173 22.5941 143.856 22.0387 142.273C18.4771 132.123 28.2622 148.127 40.0751 171.77L53.7254 199.089L60.5592 198.943C68.178 198.78 70.6306 196.449 69.4948 190.449C66.8409 176.412 65.3432 144.159 66.2997 121.612C67.5645 91.7848 66.9179 89.9107 55.3552 89.9107C41.8464 89.9107 40.6005 95.1215 45.5811 130.755C48.1045 148.804 47.9063 150.429 43.8569 144.967C34.0939 131.799 29.4546 121.906 25.4132 105.642C20.7661 86.9354 21.0209 87.1993 10.4634 90.1746Z" fill="white"/>
<path fill-rule="evenodd" clip-rule="evenodd" d="M129.456 1.7474C123.832 2.46845 113.921 4.29229 107.432 5.80194L95.6331 8.54633L108.218 9.60355C127.551 11.2279 138.7 15.7113 123.557 15.771C111.503 15.8181 84.7374 24.5822 81.7421 29.4631C81.3347 30.1276 90.3111 30.6868 101.688 30.7072C114.878 30.7308 123.517 31.4252 125.523 32.6238C128.286 34.2732 127.806 34.5136 121.59 34.589C105.834 34.7806 88.5696 41.5764 77.3058 52.0199C71.3057 57.5841 70.9471 58.2658 74.3954 57.5511C147.102 42.4954 217.355 52.6655 273.434 86.368C280.686 90.7273 287.007 94.2932 287.48 94.2932C288.525 94.2932 276.66 71.8119 272.142 65.2313C239.063 17.0497 187.847 -5.73645 129.456 1.7474ZM305.8 100.604L294.596 114.769L277.362 113.722C251.556 112.158 250.492 113.966 264.748 135.137C275.933 151.748 275.564 148.108 268.006 167.272C259.052 189.982 260.864 191.808 285.279 184.654C302.885 179.495 301.417 179.168 316.663 191.656C336.066 207.548 338.687 206.311 338.687 181.262C338.687 162.763 338.209 163.558 356.385 151.894C375.343 139.73 374.78 137.054 351.547 128.85C334.751 122.92 333.906 121.993 330.034 105.29C324.588 81.7887 321.201 81.1337 305.8 100.604ZM311.943 137.481C311.943 138.667 313.491 140.129 315.384 140.728C318.531 141.725 318.598 141.983 316.17 143.757C314.71 144.822 313.516 146.735 313.516 148.009C313.516 151.468 311.71 152.609 309.343 150.647C308.186 149.688 305.823 149.274 304.093 149.726C301.423 150.424 301.091 149.971 301.9 146.749C302.432 144.638 301.993 141.914 300.914 140.615C299.279 138.648 299.631 138.279 303.147 138.279C305.444 138.279 307.729 137.223 308.224 135.932C309.273 133.202 311.943 134.314 311.943 137.481Z" fill="#F8A120"/>
<path fill-rule="evenodd" clip-rule="evenodd" d="M504.127 87.8831C501.35 111.272 503.362 188.565 506.837 192.035C512.299 197.489 541.598 193.98 553.493 186.447C585.083 166.442 576.146 102.933 539.86 89.5734C535.741 88.0575 504.284 86.5698 504.127 87.8831ZM534.915 110.06C561.582 122.459 561.675 156.158 535.08 169.824C523.744 175.649 524.672 178.084 523.543 139.538C522.446 102.08 521.732 103.93 534.915 110.06Z" fill="white"/>
<path fill-rule="evenodd" clip-rule="evenodd" d="M461.405 79.2481C458.824 81.826 460.249 93.8467 463.331 95.4946C474.25 101.331 483.905 95.083 481.051 84.03C479.777 79.0973 465.127 75.5313 461.405 79.2481ZM460.479 104.785C455.723 109.534 452.88 191.85 457.373 194.693C460.612 196.743 475.07 196.346 478.078 194.125C482.319 190.992 483.246 105.585 479.062 103.349C474.184 100.741 463.718 101.55 460.479 104.785Z" fill="white"/>
<path fill-rule="evenodd" clip-rule="evenodd" d="M385.536 89.4652C376.884 90.4988 376.885 90.4863 376.856 128.037C376.837 150.514 376.016 168.072 374.53 177.722C371.749 195.794 372.633 197.217 385.985 196.171C397.827 195.244 398.016 194.856 397.568 172.227C397.352 161.426 397.533 152.588 397.969 152.588C407.1 152.588 413.532 163.826 414.366 181.233L415.031 195.133L426.24 194.674L437.451 194.217L437.929 184.961C438.925 165.705 427.027 142.653 413.125 136.902L408.382 134.942L414.651 130.406C432.781 117.291 439.784 94.1858 425.929 93.1898C417.38 92.5756 415.82 93.9109 411.451 105.573C406.138 119.759 394.536 130.82 396.795 119.547C401.296 97.0747 397.895 87.9885 385.536 89.4652Z" fill="white"/>
<path fill-rule="evenodd" clip-rule="evenodd" d="M174.6 90.9886C167.932 91.9625 166.391 93.7455 167.133 99.6176C168.886 113.483 181.713 187.583 182.612 189.033C186.43 195.202 205.411 198.353 216.14 194.6C225.188 191.435 226.753 187.479 237.661 140.231C249.369 89.526 249.476 91.4064 234.79 90.1905C224.289 89.3218 223.671 90.0413 220.279 107.109C216.051 128.392 204.121 172.53 203.297 169.946C202.883 168.65 199.443 151.334 195.652 131.465C188.835 95.7422 186.642 89.4239 181.285 90.0649C180.205 90.1937 177.195 90.61 174.6 90.9886Z" fill="white"/>
<path fill-rule="evenodd" clip-rule="evenodd" d="M114.14 89.1128C82.8062 98.7472 71.9829 134.863 87.779 177.086C100.537 211.187 141.768 195.676 154.487 151.989C166.248 111.588 145.616 79.4344 114.14 89.1128ZM127.976 111.346C139.531 118.813 138.765 149.081 126.705 161.504C113.505 175.105 100.187 161.617 100.187 134.651C100.187 114.064 114.112 102.385 127.976 111.346Z" fill="white"/>
</svg>
