<svg width="824" height="291" viewBox="0 0 824 291" fill="none" xmlns="http://www.w3.org/2000/svg">
<path fill-rule="evenodd" clip-rule="evenodd" d="M15.0514 129.211C2.84272 132.654 3.00113 131.782 3.51029 192.569C3.81579 228.919 3.04412 254.077 1.39442 261.676C-2.1788 278.125 0.482445 281.2 16.8369 279.515C36.2486 277.515 36.3007 277.402 34.6125 240.326C33.8114 222.709 32.5012 206.43 31.7023 204.152C26.579 189.552 40.6546 212.575 57.6472 246.584L77.283 285.883L87.1133 285.672C98.0729 285.437 101.601 282.084 99.967 273.454C96.1493 253.261 93.995 206.866 95.3709 174.432C97.1903 131.527 96.2602 128.831 79.6274 128.831C60.1953 128.831 58.4031 136.327 65.5676 187.584C69.1974 213.548 68.9123 215.885 63.0874 208.028C49.0434 189.087 42.3699 174.855 36.5564 151.46C29.8716 124.551 30.2382 124.931 15.0514 129.211Z" fill="white"/>
<path fill-rule="evenodd" clip-rule="evenodd" d="M186.22 2.00964C178.13 3.04686 163.873 5.67041 154.539 7.84202L137.566 11.7898L155.67 13.3106C183.48 15.6471 199.517 22.0964 177.734 22.1823C160.395 22.2501 121.893 34.8571 117.584 41.8781C116.998 42.834 129.911 43.6385 146.277 43.6679C165.249 43.7017 177.678 44.7006 180.563 46.4247C184.537 48.7974 183.846 49.1432 174.905 49.2517C152.24 49.5273 127.406 59.303 111.203 74.3257C102.572 82.3297 102.056 83.3104 107.016 82.2822C211.604 60.6249 312.661 75.2544 393.329 123.735C403.761 130.006 412.854 135.135 413.535 135.135C415.038 135.135 397.971 102.796 391.471 93.33C343.888 24.0217 270.215 -8.75573 186.22 2.00964ZM439.887 144.212L423.771 164.589L398.98 163.084C361.858 160.833 360.328 163.434 380.835 193.888C396.925 217.783 396.393 212.547 385.522 240.113C372.641 272.782 375.248 275.408 410.369 265.117C435.694 257.696 433.583 257.226 455.513 275.189C483.425 298.051 487.195 296.27 487.195 260.239C487.195 233.628 486.507 234.771 512.653 217.993C539.924 200.496 539.114 196.645 505.695 184.845C481.533 176.314 480.318 174.981 474.748 150.953C466.914 117.148 462.042 116.205 439.887 144.212ZM448.724 197.26C448.724 198.966 450.951 201.07 453.673 201.931C458.202 203.366 458.297 203.736 454.805 206.287C452.705 207.82 450.987 210.572 450.987 212.405C450.987 217.38 448.389 219.021 444.984 216.199C443.32 214.82 439.921 214.224 437.432 214.874C433.592 215.878 433.114 215.227 434.278 210.592C435.042 207.555 434.411 203.637 432.859 201.768C430.507 198.939 431.014 198.408 436.072 198.408C439.376 198.408 442.662 196.889 443.375 195.032C444.884 191.104 448.724 192.704 448.724 197.26Z" fill="#F8A120"/>
<path fill-rule="evenodd" clip-rule="evenodd" d="M725.177 125.914C721.183 159.559 724.077 270.743 729.076 275.735C736.933 283.581 779.079 278.532 796.189 267.697C841.632 238.919 828.776 147.563 776.578 128.346C770.654 126.165 725.403 124.025 725.177 125.914ZM769.466 157.815C807.825 175.651 807.959 224.127 769.703 243.784C753.396 252.163 754.731 255.666 753.107 200.219C751.529 146.336 750.502 148.997 769.466 157.815Z" fill="white"/>
<path fill-rule="evenodd" clip-rule="evenodd" d="M663.723 113.493C660.009 117.201 662.06 134.493 666.493 136.863C682.2 145.258 696.088 136.271 691.983 120.372C690.15 113.276 669.077 108.147 663.723 113.493ZM662.39 150.227C655.549 157.058 651.46 275.469 657.923 279.559C662.583 282.508 683.379 281.936 687.706 278.741C693.807 274.235 695.14 151.377 689.123 148.162C682.105 144.411 667.05 145.574 662.39 150.227Z" fill="white"/>
<path fill-rule="evenodd" clip-rule="evenodd" d="M554.587 128.19C542.14 129.677 542.143 129.659 542.1 183.676C542.073 216.008 540.891 241.265 538.755 255.146C534.754 281.142 536.026 283.19 555.232 281.685C572.267 280.352 572.539 279.793 571.894 247.242C571.584 231.704 571.844 218.991 572.471 218.991C585.605 218.991 594.858 235.157 596.058 260.197L597.015 280.191L613.139 279.531L629.265 278.874L629.953 265.559C631.385 237.859 614.27 204.7 594.272 196.427L587.45 193.607L596.467 187.083C622.548 168.217 632.621 134.981 612.691 133.548C600.394 132.664 598.149 134.585 591.865 151.361C584.223 171.767 567.533 187.678 570.783 171.462C577.257 139.136 572.365 126.066 554.587 128.19Z" fill="white"/>
<path fill-rule="evenodd" clip-rule="evenodd" d="M251.158 130.381C241.568 131.782 239.35 134.347 240.418 142.794C242.939 162.739 261.391 269.33 262.684 271.416C268.176 280.29 295.481 284.823 310.914 279.424C323.928 274.871 326.18 269.181 341.871 201.215C358.712 128.278 358.866 130.983 337.742 129.233C322.636 127.984 321.747 129.019 316.868 153.571C310.785 184.186 293.625 247.677 292.439 243.96C291.844 242.096 286.895 217.187 281.441 188.606C271.636 137.219 268.481 128.131 260.776 129.053C259.221 129.238 254.892 129.837 251.158 130.381Z" fill="white"/>
<path fill-rule="evenodd" clip-rule="evenodd" d="M164.189 127.683C119.115 141.542 103.546 193.493 126.268 254.231C144.621 303.285 203.931 280.972 222.227 218.129C239.145 160.013 209.466 113.761 164.189 127.683ZM184.092 159.665C200.713 170.406 199.611 213.946 182.263 231.816C163.275 251.381 144.117 231.979 144.117 193.188C144.117 163.575 164.148 146.776 184.092 159.665Z" fill="white"/>
</svg>
