<svg width="145" height="146" viewBox="0 0 145 146" fill="none" xmlns="http://www.w3.org/2000/svg">
<path fill-rule="evenodd" clip-rule="evenodd" d="M53.3468 14.3737C78.6576 10.7834 81.2288 13.2104 99.5472 12.141C117.866 11.0715 136.586 17.398 138.812 39.0994C141.144 61.8528 143.019 80.8564 144.474 100.006C146.331 124.502 128.426 133.235 97.9805 138.436C77.2364 141.273 68.6861 142.332 43.4854 145.169C14.7902 148.395 6.94612 138.815 4.55411 121.971C2.10758 104.745 1.12458 83.9465 0.581524 62.9153C-0.0327122 39.1132 5.97529 21.6445 53.3468 14.3737Z" fill="#F8A221"/>
<path fill-rule="evenodd" clip-rule="evenodd" d="M102.668 123.236C92.2278 125.608 73.1126 129.938 54.9615 132.74C17.0251 138.594 17.3511 123.542 11.8605 102.23C9.0407 91.2851 2.00111 66.0455 0.615695 42.8475C-0.813124 18.917 18.6338 11.4136 42.756 7.88932C55.7421 5.99002 68.6077 3.57669 78.1726 2.72253C112.055 -0.308724 129.402 -3.52737 132.633 29.1289C135.226 55.3233 136.572 69.9309 136.572 69.9309C141.409 103.729 135.596 115.761 102.668 123.236Z" fill="white"/>
<path d="M55 31.5004L87.9206 36.243L81.5 80.5002L76 76.0002L73 75L71 73L74.5 69.5L79 59L76 50.5L66.5 45.5L56.5 45L55 52.5L59 71L58 72L47 74.0002L55 31.5004Z" fill="#F8A221"/>
<path fill-rule="evenodd" clip-rule="evenodd" d="M79.3365 15.2574C79.4253 15.386 79.5388 15.4955 79.6704 15.5797C79.802 15.6638 79.9491 15.7208 80.1031 15.7474C80.257 15.7739 80.4147 15.7694 80.5669 15.7341C80.7191 15.6989 80.8627 15.6335 80.9893 15.542L85.8702 12.0837C86.1083 11.8948 86.2651 11.6222 86.3086 11.3215C86.352 11.0207 86.2789 10.7147 86.104 10.4661C85.9292 10.2176 85.666 10.0452 85.3682 9.98445C85.0705 9.9237 84.7607 9.9792 84.5025 10.1394L79.622 13.5977C79.365 13.779 79.1904 14.0546 79.1362 14.3644C79.0821 14.6742 79.1529 14.9927 79.3331 15.2504C79.3341 15.2539 79.3341 15.2539 79.3365 15.2574ZM68.8563 13.4345C69.0459 13.6721 69.3193 13.8282 69.6203 13.8707C69.9213 13.9132 70.2272 13.8389 70.4752 13.663C70.7231 13.4871 70.8943 13.2228 70.9537 12.9246C71.013 12.6265 70.9559 12.3169 70.7942 12.0595L67.347 7.18802C67.1576 6.94957 66.8841 6.79265 66.5827 6.74975C66.2813 6.70686 65.9749 6.78111 65.7265 6.95727C65.4782 7.13344 65.3069 7.39814 65.2478 7.69681C65.1886 7.99549 65.2463 8.30553 65.4088 8.563L68.8563 13.4345ZM74.9445 14.2505C74.951 14.2498 74.9575 14.251 74.9633 14.2539C75.2747 14.3064 75.5942 14.2332 75.8516 14.0502C76.109 13.8673 76.2832 13.5897 76.3359 13.2783L77.3879 7.16717C77.4144 7.01343 77.4103 6.85596 77.3759 6.70381C77.3415 6.55165 77.2775 6.4077 77.1875 6.28029C77.0975 6.15288 76.9832 6.04448 76.8513 5.96121C76.7194 5.87795 76.5724 5.82151 76.4187 5.79506C76.2649 5.76861 76.1075 5.7727 75.9553 5.8071C75.8032 5.8415 75.6593 5.90545 75.5319 5.99546C75.4045 6.08546 75.2961 6.19975 75.2128 6.33166C75.1295 6.46357 75.0731 6.6106 75.0466 6.76433L73.9963 12.8685C73.9395 13.1774 74.0074 13.4962 74.1851 13.7552C74.3628 14.0142 74.6359 14.1923 74.9445 14.2505ZM110.106 105.379C109.917 105.083 106.674 99.7817 106.674 99.7817L106.665 99.7643L106.656 99.7504C105.428 97.7938 104.78 95.5292 104.788 93.2193C105.082 86.6853 104.451 80.1425 102.913 73.7852L102.887 73.6775L102.854 73.5699C100.645 66.4671 97.8045 59.5762 94.3671 52.9796L97.6935 33.6532C98.2103 30.6362 97.5114 27.5373 95.7496 25.0342C93.9878 22.531 91.3065 20.8273 88.2921 20.2957L60.3841 15.4935C57.3657 14.987 54.2695 15.6962 51.7724 17.466C49.2753 19.2358 47.5805 21.9221 47.0584 24.9379L35.0827 94.5247C34.5664 97.5418 35.2656 100.641 37.0275 103.144C38.7893 105.647 41.4704 107.351 44.4848 107.882L72.3914 112.684C72.7324 112.743 73.072 112.782 73.4105 112.81L77.789 114.983C79.0365 115.601 80.1747 116.125 81.174 116.542C82.393 117.194 83.5515 119.306 83.8001 119.573C84.0487 119.84 85.0904 121.056 86.3056 120.188C87.5209 119.32 86.7476 117.643 86.7476 117.643L107.057 107.024C107.057 107.024 107.66 108.035 109.222 107.34C110.785 106.646 110.296 105.675 110.106 105.379ZM77.4411 108.879L77.2126 108.969C75.8563 109.483 74.3874 109.624 72.9581 109.379L45.0529 104.577C42.9094 104.198 41.003 102.986 39.75 101.206C38.497 99.4259 37.9992 97.2225 38.3653 95.0768L50.3383 25.504C50.7104 23.3589 51.916 21.4479 53.692 20.1885C55.4679 18.9291 57.67 18.4233 59.8175 18.7816L87.724 23.5873C89.8676 23.9661 91.7741 25.1779 93.0269 26.958C94.2798 28.738 94.7772 30.9416 94.4105 33.0873L91.7171 48.7401C91.3188 48.442 90.8609 48.2334 90.3746 48.1285C89.8883 48.0237 89.3851 48.025 88.8994 48.1324L90.8657 36.7089C90.9411 36.2728 90.8405 35.8247 90.5859 35.4627C90.3313 35.1008 89.9436 34.8547 89.5077 34.7783L54.3938 28.7365C54.1779 28.6995 53.9567 28.7057 53.7431 28.7543C53.5294 28.8029 53.3275 28.893 53.1487 29.0198C52.97 29.1465 52.818 29.3073 52.7015 29.4928C52.5849 29.6784 52.5061 29.8851 52.4695 30.1011L42.0747 90.5039C42.0369 90.7195 42.042 90.9406 42.0898 91.1543C42.1376 91.3679 42.227 91.57 42.3531 91.749C42.4791 91.928 42.6392 92.0804 42.8242 92.1974C43.0093 92.3145 43.2156 92.3939 43.4313 92.4311L78.5452 98.4761C78.9814 98.5501 79.4291 98.448 79.79 98.1921C80.1509 97.9362 80.3954 97.5477 80.4699 97.1116L86.089 64.4588C86.1834 64.7158 86.2706 64.9519 86.3477 65.1533V65.1567L86.6949 66.0561C87.5354 68.244 87.8308 70.6035 87.5556 72.931L82.4393 102.66C82.2003 104.035 81.6163 105.326 80.7421 106.414C79.868 107.502 78.7322 108.35 77.4411 108.879ZM83.8192 55.7713C83.8765 56.181 83.9456 56.5908 84.0174 57.0005L80.2598 78.8338C78.3154 76.5907 76.3015 75.7191 73.2876 74.6705C72.6245 74.32 72.039 73.8394 71.5661 73.2574C73.739 72.1328 75.5779 70.4564 76.8981 68.3964C78.2182 66.3364 78.9732 63.9654 79.0872 61.5213C80.7973 55.4623 78.4372 52.681 77.1261 51.6637C77.0078 50.3657 76.5073 49.132 75.6879 48.1185L75.665 48.0907C74.891 47.261 73.9542 46.6 72.9131 46.149C71.872 45.6979 70.749 45.4665 69.6143 45.4693C65.6274 45.679 61.6693 44.6871 58.2525 42.622C57.957 42.3134 57.5538 42.1306 57.1269 42.1118C56.7 42.0931 56.2823 42.2398 55.9609 42.5213C55.7818 42.6748 55.6385 42.8655 55.541 43.0802C54.4197 45.4093 53.8309 47.9588 53.8174 50.5437C53.8039 53.1286 54.366 55.6841 55.4629 58.0247C55.4317 58.1462 55.4018 58.2644 55.3737 58.3824L55.3518 58.4762C54.8448 60.6923 54.8918 62.999 55.4886 65.1926C56.0855 67.3862 57.2138 69.3988 58.7737 71.0525L58.7595 71.063L58.3848 71.2678C57.8502 71.5395 57.275 71.7224 56.6817 71.8095C53.489 71.7887 51.0192 71.8859 48.381 73.3442L55.4435 32.306L87.322 37.7921L85.1164 50.6081C84.5607 51.3354 84.1591 52.1684 83.9361 53.0561C83.7131 53.9438 83.6733 54.8677 83.8192 55.7713ZM58.5449 59.5282C62.195 59.6436 65.8439 59.2639 69.3921 58.3997C69.9323 58.2778 70.4957 58.3084 71.0196 58.4881C71.5434 58.6677 72.0071 58.9894 72.3588 59.4172C73.2511 60.6128 74.3804 61.6115 75.6761 62.3511C75.4337 64.5957 74.4373 66.6917 72.8496 68.2968C71.262 69.9018 69.1769 70.9211 66.9351 71.188C65.8732 71.3395 64.7905 71.1524 63.8411 70.6532C61.8385 69.6615 60.2275 68.0253 59.2669 66.0076C58.3064 63.9899 58.0521 61.7079 58.5449 59.5282ZM58.2456 56.174C56.8579 53.0884 56.7114 49.5871 57.8365 46.3963C61.513 48.043 65.5059 48.8632 69.5338 48.7991C70.1948 48.7926 70.8505 48.9175 71.4628 49.1666C72.0751 49.4158 72.6318 49.7843 73.1004 50.2505C73.5898 50.8694 73.842 51.6426 73.8115 52.431C73.781 52.7824 73.8595 53.1347 74.0365 53.4398C74.2135 53.7449 74.4802 53.988 74.8004 54.1359C74.8845 54.1741 76.7306 55.0769 76.2699 58.7227C75.782 58.3117 75.3397 57.8495 74.9504 57.3442C74.2052 56.4222 73.2164 55.7277 72.0963 55.3392C70.9763 54.9507 69.7697 54.8838 68.6136 55.1462L68.6067 55.1498C65.2196 55.984 61.7305 56.3288 58.2456 56.174ZM69.0244 75.4657L64.8313 76.6464C64.6843 76.6882 64.5298 76.6964 64.3791 76.6706C64.2284 76.6448 64.0855 76.5855 63.9608 76.497L60.4414 73.9935C60.831 73.7602 61.1967 73.4892 61.5334 73.1845C61.8011 73.3407 62.049 73.4761 62.2973 73.6046C63.8571 74.4126 65.6291 74.7172 67.3692 74.4762C67.647 74.438 67.939 74.3893 68.2508 74.3302C68.4714 74.7328 68.7305 75.113 69.0244 75.4657ZM62.0633 79.2366C62.5916 79.6134 63.1982 79.8662 63.8378 79.9762C64.4773 80.0862 65.1335 80.0505 65.7574 79.8719L72.5282 77.9552C76.0303 79.0768 78.2018 80.8303 79.3685 84.0004L77.4914 94.9067L77.4685 94.9032L45.6358 89.4241L45.6129 89.4205L47.4917 78.5039C49.7334 75.9275 52.6251 75.056 56.2924 75.1602L62.0633 79.2366ZM107.057 107.024L86.7476 117.643C85.8897 115.805 84.4422 114.307 82.6351 113.386C81.707 113.007 80.5904 112.497 79.3268 111.869C80.9829 111.217 82.4431 110.15 83.5669 108.77C84.6906 107.39 85.44 105.744 85.7428 103.99L90.7775 74.7366C90.9608 73.8081 91.0704 72.8664 91.1053 71.9205C91.1537 71.6397 91.1683 71.3542 91.1487 71.07L91.082 70.0942C91.0438 69.504 90.9779 68.9102 90.881 68.3234C90.8775 68.306 90.8737 68.2852 90.8702 68.2644C90.8269 68.0074 90.7779 67.7504 90.723 67.4935C90.7136 67.4518 90.7053 67.4066 90.6959 67.3649C90.6355 67.0941 90.5699 66.8199 90.4966 66.5525C90.4893 66.5247 90.4806 66.497 90.473 66.4693C90.4081 66.2331 90.3376 66.0005 90.2647 65.7679C90.2435 65.7019 90.222 65.6323 90.2001 65.5698C90.1143 65.3094 90.0265 65.0526 89.9268 64.7991C89.9246 64.7872 89.921 64.7755 89.916 64.7643C89.9136 64.7574 89.9095 64.747 89.906 64.7365C89.8994 64.7192 89.8918 64.7018 89.8824 64.674C89.8775 64.6636 89.8716 64.6463 89.8657 64.6324C89.8518 64.5977 89.8359 64.556 89.8178 64.5109C89.773 64.3963 89.7136 64.247 89.6483 64.0699C89.6411 64.0525 89.6327 64.0283 89.6251 64.0109C89.5994 63.9415 89.572 63.8685 89.5435 63.7956C89.5324 63.7643 89.5209 63.7331 89.5088 63.7018C89.4817 63.6324 89.4539 63.5559 89.4251 63.4796C89.4126 63.4448 89.4001 63.4102 89.3869 63.3755C89.3477 63.2678 89.307 63.1566 89.2647 63.0386C89.0299 62.3893 88.7581 61.5942 88.491 60.7262L88.4657 60.6428C87.953 59.0167 87.568 57.3531 87.3143 55.6671C87.2924 55.5212 87.2657 55.3824 87.2449 55.2366C87.2248 55.1171 87.2114 54.9965 87.2046 54.8755C87.2046 54.8477 87.2015 54.8164 87.2004 54.7887C87.1916 54.5478 87.2101 54.3067 87.2556 54.07C87.2591 54.0491 87.2622 54.0317 87.2661 54.0144C87.3171 53.77 87.3961 53.5323 87.5015 53.306C87.5015 53.3025 87.5042 53.2991 87.5053 53.2957C87.6714 52.9458 87.897 52.6273 88.172 52.3545C88.4075 52.1205 88.6783 51.9249 88.9744 51.7747C89.1471 51.6908 89.3456 51.6768 89.5285 51.7357C89.7113 51.7946 89.8643 51.9217 89.9556 52.0907C90.2622 52.6463 90.5581 53.2087 90.8546 53.7712C91.2546 54.5282 91.6481 55.2898 92.0352 56.056C92.0869 56.1601 92.1393 56.2644 92.1911 56.3651C92.5914 57.1671 92.9838 57.9761 93.3668 58.7851C95.7921 63.9089 97.856 69.1963 99.5435 74.6081C101.01 80.6689 101.609 86.9069 101.323 93.1359C101.3 96.1284 102.131 99.0653 103.721 101.601L106.755 106.553C106.806 106.636 107.057 107.024 107.057 107.024ZM72.1709 30.4692C72.9553 30.6066 73.7628 30.5082 74.4912 30.1864C75.2196 29.8646 75.8361 29.3341 76.2628 28.6617C76.6894 27.9893 76.9069 27.2054 76.8878 26.4093C76.8687 25.6133 76.6138 24.8408 76.1554 24.1897C75.697 23.5386 75.0557 23.0381 74.3127 22.7516C73.5697 22.4652 72.7584 22.4056 71.9815 22.5806C71.2046 22.7555 70.4972 23.1571 69.9486 23.7343C69.4001 24.3116 69.0352 25.0386 68.9001 25.8234C68.7183 26.8734 68.9608 27.9524 69.5745 28.8236C70.188 29.6948 71.1225 30.2867 72.1723 30.4692H72.1709ZM71.1841 26.2157C71.1846 25.8101 71.3461 25.4213 71.6331 25.1347C71.9202 24.8482 72.3092 24.6874 72.7148 24.6876C73.1204 24.6879 73.5093 24.849 73.796 25.1359C74.0828 25.4228 74.2438 25.8118 74.2438 26.2174C74.2438 26.623 74.0828 27.0121 73.796 27.2989C73.5093 27.5858 73.1204 27.7471 72.7148 27.7474C72.3092 27.7476 71.9202 27.5867 71.6331 27.3001C71.3461 27.0136 71.1846 26.6247 71.1841 26.2191V26.2157Z" fill="#8F37FF"/>
</svg>
