<svg width="146" height="134" viewBox="0 0 146 134" fill="none" xmlns="http://www.w3.org/2000/svg">
<path fill-rule="evenodd" clip-rule="evenodd" d="M129.915 42.2033C130.366 52.7415 130.848 75.9047 130.318 94.0749C129.213 132.051 114.285 129.985 92.0639 132.912C80.6507 134.415 51.2173 133.63 27.8687 132.304C3.78332 130.933 -0.131959 110.943 0.768735 86.818C1.25485 73.8319 1.20415 60.9047 2.10103 51.3977C5.27915 17.738 5.2479 0.307499 38.351 0.91861C64.9055 1.40819 83.0444 2.68948 83.0444 2.68948C117.574 1.85267 128.491 8.96371 129.915 42.2033Z" fill="#F8A221"/>
<path fill-rule="evenodd" clip-rule="evenodd" d="M19.1483 90.6049C15.9886 69.0633 15.3865 61.9277 14.6035 46.2298C13.8205 30.5319 20.3379 13.966 41.7632 10.5215C64.2243 6.9139 82.9848 3.96594 101.882 1.36525C126.055 -1.95767 134.396 12.8479 139.067 38.6986C141.556 56.3618 142.47 63.6501 144.89 85.1501C147.643 109.633 138.081 117.063 121.444 120.306C104.428 123.622 83.9146 125.931 63.1757 127.879C39.7052 130.08 25.6091 130.886 19.1483 90.6049Z" fill="white"/>
<path d="M54 61.5001L65 67L76 62.0003L78 65.0004L68.5 72L67 84L65 85L61.5 76L57 78L51.5 84.4999L50 79.9999L48 77.4999L46 74.5L53 73.5L57.5 70.0001L52 63.0001L54 61.5001Z" fill="#F8A221"/>
<path fill-rule="evenodd" clip-rule="evenodd" d="M82.9754 47.1911L81.5566 44.6875C81.4436 44.4874 81.2558 44.3405 81.0345 44.2787C80.8132 44.2169 80.5764 44.2453 80.3761 44.3577L79.1087 45.0764C78.9087 45.1904 78.762 45.379 78.7008 45.601C78.6395 45.8229 78.6687 46.0601 78.782 46.2605L80.2007 48.7673C80.2568 48.8663 80.3318 48.9534 80.4215 49.0233C80.5112 49.0933 80.6137 49.1448 80.7234 49.1751C80.833 49.2054 80.9475 49.214 81.0604 49.2C81.1733 49.1861 81.2823 49.15 81.3813 49.0939L82.649 48.375C82.7482 48.3187 82.8353 48.2436 82.9054 48.1536C82.9756 48.0636 83.0272 47.9606 83.0576 47.8506C83.0879 47.7407 83.0962 47.6259 83.0821 47.5127C83.068 47.3995 83.0317 47.2903 82.9754 47.1911ZM87.1851 54.6147L85.7729 52.1043C85.6599 51.9042 85.4721 51.7572 85.2508 51.6953C85.0295 51.6335 84.7928 51.6619 84.5924 51.7743L83.3233 52.4896C83.1228 52.6032 82.9755 52.7916 82.9137 53.0135C82.852 53.2355 82.8807 53.4729 82.9938 53.6737L84.4056 56.1841C84.5186 56.3842 84.7064 56.5312 84.9277 56.5931C85.149 56.6549 85.3858 56.6263 85.5861 56.5139L86.8556 55.7986C87.0558 55.6848 87.2028 55.4966 87.2646 55.2747C87.3263 55.0528 87.2977 54.8155 87.1851 54.6147ZM95.5729 69.4896L94.1538 66.9862C94.098 66.8869 94.0231 66.7996 93.9335 66.7295C93.8439 66.6593 93.7412 66.6076 93.6315 66.5772C93.5218 66.5469 93.4071 66.5387 93.2941 66.5528C93.1812 66.567 93.0721 66.6033 92.9733 66.6598L91.7063 67.3785C91.6073 67.4346 91.5204 67.5095 91.4504 67.5992C91.3804 67.6889 91.3288 67.7916 91.2985 67.9012C91.2682 68.0108 91.2598 68.1254 91.2738 68.2382C91.2877 68.3511 91.3238 68.4601 91.3799 68.559L92.7993 71.066C92.913 71.2655 93.101 71.4118 93.3222 71.4729C93.5435 71.5341 93.7799 71.5051 93.9799 71.3924L95.2469 70.6737C95.4469 70.5597 95.5935 70.3709 95.6546 70.149C95.7157 69.927 95.6863 69.69 95.5729 69.4896ZM91.3715 62.0418L89.9528 59.5348C89.8967 59.4358 89.8217 59.3489 89.732 59.2789C89.6423 59.209 89.5398 59.1573 89.4301 59.127C89.3205 59.0967 89.206 59.0883 89.0931 59.1023C88.9802 59.1162 88.8712 59.1523 88.7722 59.2084L87.5045 59.9271C87.4053 59.9834 87.3182 60.0587 87.2481 60.1487C87.1779 60.2387 87.1263 60.3415 87.096 60.4515C87.0656 60.5615 87.0573 60.6764 87.0714 60.7896C87.0855 60.9028 87.1218 61.012 87.1781 61.1112L88.5969 63.618C88.6529 63.717 88.7279 63.8041 88.8176 63.8741C88.9073 63.944 89.0099 63.9956 89.1195 64.026C89.2292 64.0563 89.3437 64.0647 89.4566 64.0507C89.5695 64.0367 89.6785 64.0007 89.7774 63.9446L91.0448 63.2257C91.2449 63.1118 91.3916 62.9233 91.453 62.7013C91.5143 62.4794 91.4848 62.2423 91.3715 62.0418ZM76.9195 60.2014L76.792 60.1528C76.2305 59.9948 75.6431 59.9499 75.0641 60.0209C74.4851 60.0918 73.9259 60.2772 73.4191 60.5661L66.2229 64.705L54.8795 59.2778C54.5172 59.1036 54.1181 59.0201 53.7164 59.034C53.3147 59.0479 52.9223 59.1589 52.5729 59.3576L50.0851 60.7709C49.7745 60.9476 49.5093 61.1942 49.3107 61.4913C49.1121 61.7884 48.9855 62.1277 48.9409 62.4823C48.8963 62.8368 48.935 63.1969 49.0538 63.5339C49.1727 63.8709 49.3685 64.1756 49.6257 64.4237L55.5285 70.1147C55.5758 70.1601 55.6117 70.2158 55.6333 70.2777C55.655 70.3395 55.6617 70.4056 55.653 70.4706C55.6443 70.5355 55.6205 70.5975 55.5833 70.6515C55.5462 70.7055 55.4968 70.75 55.4393 70.7814L51.7504 72.8021C51.7101 72.824 51.6627 72.829 51.6188 72.816L44.8479 70.9272C44.5737 70.8514 44.2871 70.8305 44.0048 70.8656C43.7224 70.9008 43.4498 70.9912 43.2024 71.132L42.0219 71.7986C41.8383 71.9029 41.6796 72.0458 41.5567 72.2176C41.4339 72.3893 41.3498 72.5857 41.3104 72.7932C41.271 73.0006 41.2772 73.2141 41.3285 73.4189C41.3799 73.6237 41.4751 73.8149 41.6077 73.9793L46.9597 80.6112C46.972 80.6269 46.9817 80.6445 46.9882 80.6633L49.9049 88.6737C49.9768 88.8726 50.0913 89.0533 50.2404 89.2033C50.3895 89.3533 50.5695 89.4689 50.768 89.542C50.9665 89.6151 51.1785 89.6439 51.3893 89.6265C51.6001 89.609 51.8045 89.5457 51.9882 89.441L53.1705 88.771C53.6679 88.4898 54.0334 88.0227 54.1868 87.4723L56.1004 80.6494C56.1131 80.6042 56.1429 80.5656 56.1833 80.5417L59.8705 78.4584C59.927 78.4266 59.9902 78.4084 60.0551 78.4053C60.1199 78.4022 60.1845 78.4143 60.2438 78.4406C60.3032 78.4669 60.3555 78.5066 60.3967 78.5567C60.438 78.6068 60.4669 78.6659 60.4813 78.7292L62.2813 86.7466C62.359 87.0963 62.5177 87.4229 62.7445 87.7001C62.9713 87.9774 63.26 88.1975 63.5873 88.343C63.9147 88.4886 64.2715 88.5554 64.6293 88.538C64.9871 88.5207 65.3359 88.4197 65.6476 88.2432L68.1205 86.8438C68.4696 86.6457 68.7659 86.3666 68.9845 86.03C69.2032 85.6934 69.3377 85.3093 69.3767 84.9098L70.5872 72.3751L77.7837 68.3091C78.5372 67.8819 79.1495 67.2437 79.5452 66.4731C79.941 65.7026 80.1029 64.8332 80.0111 63.9719C79.9193 63.1105 79.5778 62.2948 79.0286 61.6249C78.4794 60.955 77.7461 60.4603 76.9195 60.2014ZM76.8049 64.7709C76.7156 65.0872 76.5051 65.3555 76.2191 65.5174L67.6153 70.4133L66.4049 82.9375C66.3666 83.3391 66.2316 83.7254 66.0115 84.0635C65.7914 84.4015 65.4927 84.681 65.141 84.8784L62.6354 73.8299C62.6215 73.7664 62.5928 73.707 62.5517 73.6566C62.5106 73.6063 62.4582 73.5664 62.3988 73.54C62.3394 73.5136 62.2746 73.5016 62.2096 73.5049C62.1447 73.5082 62.0814 73.5268 62.025 73.5591L54.2636 77.941C53.6972 78.261 53.2796 78.7911 53.1011 79.4167L51.8413 83.83C51.8324 83.867 51.8116 83.8999 51.7821 83.9239C51.7526 83.9479 51.716 83.9616 51.6779 83.9628C51.6399 83.9639 51.6025 83.9527 51.5716 83.9305C51.5406 83.9084 51.5178 83.8767 51.5066 83.8403L49.8219 79.0938C49.8153 79.076 49.8055 79.0595 49.7931 79.0452L46.5865 75.0557C46.5632 75.0266 46.5497 74.9908 46.5478 74.9536C46.546 74.9164 46.556 74.8797 46.5764 74.8485C46.5968 74.8173 46.6265 74.7933 46.6613 74.78C46.6961 74.7667 46.7342 74.7648 46.7702 74.7744L51.1726 75.9966C51.8037 76.1703 52.478 76.0865 53.0476 75.7639L60.7889 71.3854C60.8455 71.3535 60.8938 71.3088 60.93 71.2549C60.9662 71.201 60.9893 71.1394 60.9975 71.075C61.0056 71.0106 60.9986 70.9452 60.977 70.8839C60.9554 70.8227 60.9197 70.7674 60.8729 70.7224L52.7504 62.889L52.759 62.8821C53.1081 62.6869 53.4989 62.5782 53.8986 62.5655C54.2983 62.5528 54.6952 62.6365 55.0559 62.8092L66.2688 68.1875L66.3507 68.2257L74.9549 63.33C75.174 63.2159 75.4213 63.1672 75.6673 63.1896C75.9134 63.212 76.1478 63.3045 76.3427 63.4563C76.5376 63.6081 76.6848 63.8128 76.7668 64.0458C76.8488 64.2788 76.8618 64.5305 76.8049 64.7709ZM85.599 42.4099C85.7019 42.5923 85.8397 42.7526 86.0047 42.8817C86.1696 43.0108 86.3584 43.1062 86.5602 43.1623C86.762 43.2184 86.9729 43.2342 87.1808 43.2087C87.3887 43.1833 87.5896 43.1171 87.7719 43.0139L98.9049 36.7153C99.2629 36.5017 99.5232 36.1566 99.6302 35.7536C99.7373 35.3507 99.6824 34.9218 99.4776 34.5587C99.2727 34.1956 98.9339 33.9271 98.5337 33.8103C98.1334 33.6936 97.7034 33.738 97.3354 33.9341L86.2024 40.2362C86.02 40.3392 85.8597 40.4772 85.7306 40.6422C85.6015 40.8072 85.5061 40.9959 85.4501 41.1978C85.394 41.3997 85.3783 41.6107 85.4037 41.8187C85.4292 42.0266 85.4958 42.2275 85.599 42.4099ZM88.416 47.7223C88.5189 47.9047 88.6568 48.0652 88.8218 48.1943C88.9868 48.3234 89.1756 48.4188 89.3774 48.4749C89.5792 48.531 89.7902 48.5468 89.9981 48.5213C90.206 48.4959 90.4069 48.4297 90.5893 48.3265L101.721 42.0243C102.089 41.8153 102.36 41.4688 102.473 41.0606C102.586 40.6525 102.532 40.216 102.324 39.8472C102.221 39.6648 102.083 39.5045 101.918 39.3754C101.753 39.2463 101.564 39.1509 101.363 39.0948C101.161 39.0387 100.95 39.0229 100.742 39.0483C100.534 39.0738 100.333 39.14 100.151 39.2431L89.0191 45.5452C88.6507 45.7541 88.3802 46.1007 88.2671 46.5089C88.1539 46.917 88.2077 47.3535 88.416 47.7223ZM91.2483 53.0486V53.0522C91.3514 53.2344 91.4894 53.3945 91.6545 53.5233C91.8195 53.6522 92.0084 53.7473 92.2102 53.8031C92.412 53.8589 92.6228 53.8743 92.8306 53.8485C93.0384 53.8227 93.2391 53.7563 93.4212 53.6529L104.553 47.3508C104.921 47.1425 105.192 46.7965 105.305 46.3888C105.418 45.9812 105.365 45.5453 105.156 45.1771C105.053 44.9947 104.915 44.8342 104.75 44.7051C104.586 44.576 104.397 44.4806 104.195 44.4245C103.993 44.3684 103.782 44.3528 103.574 44.3782C103.366 44.4037 103.165 44.4699 102.983 44.573L91.8531 50.8751C91.6707 50.9781 91.5104 51.116 91.3812 51.281C91.2521 51.446 91.1568 51.6349 91.1006 51.8367C91.0445 52.0386 91.0287 52.2495 91.0541 52.4574C91.0795 52.6654 91.1452 52.8662 91.2483 53.0486ZM130.503 76.0556V76.0243L123.652 36.7882C123.554 36.2136 123.343 35.6641 123.033 35.1709C122.722 34.6778 122.317 34.2507 121.841 33.9141C121.365 33.5775 120.827 33.338 120.259 33.2091C119.69 33.0803 119.102 33.0646 118.527 33.1632L108.639 34.8334L103.526 25.7223C102.946 24.6984 101.982 23.9469 100.848 23.6331C99.7139 23.3192 98.5015 23.4686 97.4775 24.0486L77.682 35.2604C76.7825 35.7829 76.0956 36.6052 75.7417 37.5833H75.2518C75.0538 37.5694 74.8552 37.5694 74.6573 37.5833H74.4209C74.1994 37.6152 73.9804 37.6628 73.7656 37.7257H73.6483L73.5948 37.7327C73.3125 37.8251 73.0399 37.9448 72.7809 38.0903L64.7351 42.6425L40.1695 46.9029C39.1407 47.0755 38.2053 47.6039 37.5264 48.3959L37.432 48.5313C37.015 49.0712 36.7343 49.7037 36.6136 50.3751L36.6163 50.4723C36.5292 50.9626 36.5292 51.4645 36.6163 51.9549L37.6611 57.8682L28.1997 63.33C28.0463 63.4234 27.8991 63.5265 27.759 63.6389C26.9181 64.2742 26.3314 65.1885 26.1041 66.2176C25.8769 67.2467 26.0242 68.3232 26.5195 69.2534L37.3469 88.3715L46.1712 104.021C46.7168 104.984 47.6031 105.707 48.6556 106.049L48.8733 106.059C49.151 106.122 49.4337 106.16 49.7181 106.174H50.0476C50.8097 106.169 51.558 105.97 52.2209 105.594L68.7181 96.3473L81.3389 89.2501L98.9143 86.0695C99.1947 86.0194 99.4701 85.9439 99.7368 85.8438L99.9924 85.7292C100.164 85.653 100.332 85.566 100.493 85.4688L100.746 85.2848C100.888 85.1871 101.024 85.0803 101.153 84.9653L101.405 84.7154C101.437 84.676 101.472 84.639 101.509 84.6043L101.532 84.5834C102.434 85.1014 103.49 85.2845 104.514 85.1007L126.91 81.1736C128.063 80.9676 129.088 80.3141 129.762 79.3553C130.435 78.3965 130.701 77.2104 130.503 76.0556ZM39.6309 51.059L39.6344 51.0382L39.6327 51.0175C39.6294 50.9632 39.6294 50.9086 39.6327 50.8542C39.6858 50.7284 39.754 50.6095 39.8358 50.5001C39.9397 50.3763 40.0669 50.2743 40.2103 50.1998C40.3536 50.1253 40.5103 50.0799 40.6712 50.066L56.4288 47.3055L40.4712 56.3057L39.6327 51.5139C39.6064 51.3635 39.6058 51.2097 39.6309 51.059ZM65.8323 94.2952L50.6587 102.83C50.5219 102.911 50.37 102.964 50.2122 102.985C50.0545 103.006 49.8941 102.994 49.7409 102.951C49.5876 102.909 49.4447 102.835 49.3206 102.735C49.1965 102.636 49.094 102.512 49.0191 102.372L29.425 67.7188C29.2942 67.4859 29.2423 67.2169 29.2772 66.9521C29.3122 66.6873 29.432 66.441 29.6188 66.25C29.6988 66.1541 29.7931 66.0709 29.8983 66.0035L54.4243 52.1182L74.4281 40.7397C74.5489 40.6747 74.679 40.6289 74.8139 40.6042L74.9434 40.6008C75.0183 40.59 75.0938 40.5841 75.1695 40.5834C75.234 40.5825 75.2984 40.5872 75.3622 40.5973C75.5045 40.6389 75.6382 40.7059 75.7566 40.7951C75.8765 40.8918 75.9778 41.0094 76.0556 41.1424L76.0667 41.1632C76.1232 41.2623 76.1988 41.3492 76.289 41.419C76.3792 41.4889 76.4822 41.5403 76.5923 41.5703C76.7024 41.6003 76.8172 41.6083 76.9304 41.5938C77.0436 41.5794 77.1528 41.5429 77.2518 41.4862L78.5226 40.757C78.7215 40.6419 78.8668 40.4528 78.9269 40.2311C78.9871 40.0093 78.9572 39.7727 78.8438 39.5729L78.8368 39.5626C78.7146 39.2969 78.6894 38.9968 78.7655 38.7145C78.8416 38.4322 79.0143 38.1855 79.2535 38.0174L99.0396 26.8264C99.3279 26.6656 99.6681 26.6254 99.9859 26.7145C100.304 26.8036 100.573 27.0149 100.736 27.3021L120.33 61.9687C120.409 62.113 120.458 62.2715 120.476 62.4351C120.494 62.5987 120.479 62.7643 120.432 62.9221C120.385 63.0799 120.308 63.2269 120.204 63.3547C120.101 63.4825 119.973 63.5885 119.828 63.6667L100.063 74.8751C99.7753 75.0368 99.4353 75.0777 99.1175 74.9892C98.7997 74.9007 98.53 74.6898 98.3674 74.4028C98.3114 74.303 98.2362 74.2154 98.1462 74.1447C98.0562 74.0741 97.9531 74.022 97.8429 73.9913C97.7327 73.9606 97.6175 73.952 97.5039 73.966C97.3904 73.9801 97.2807 74.0165 97.1813 74.073L95.9021 74.8056C95.7027 74.9193 95.5566 75.1076 95.4959 75.329C95.4353 75.5504 95.465 75.7866 95.5785 75.9861L95.5917 76.0106C95.7059 76.2158 95.76 76.449 95.7477 76.6836C95.7354 76.9182 95.6573 77.1447 95.5222 77.3369C95.4177 77.4653 95.2896 77.5726 95.1448 77.6529L65.8323 94.2952ZM127.135 77.4966C126.953 77.7723 126.669 77.9647 126.346 78.0313L103.966 81.941C103.641 82.002 103.305 81.9318 103.032 81.7457C102.758 81.5595 102.57 81.2727 102.508 80.948C102.489 80.8338 102.449 80.7244 102.388 80.626C102.327 80.5276 102.248 80.4419 102.154 80.3742C102.06 80.3065 101.954 80.258 101.842 80.2313C101.729 80.2046 101.612 80.2003 101.498 80.2188L100.052 80.448C99.8212 80.4852 99.6145 80.6125 99.4774 80.802C99.3403 80.9914 99.284 81.2275 99.3209 81.4584L99.3229 81.4723C99.3514 81.6323 99.3477 81.7962 99.3121 81.9547C99.2766 82.1132 99.2098 82.2632 99.1158 82.3957C99.0218 82.5282 98.9023 82.6406 98.7644 82.7265C98.6265 82.8123 98.4729 82.8699 98.3125 82.8958L89.6275 84.4619L96.6677 80.4722C96.9237 80.3252 97.1645 80.153 97.3865 79.9583L97.4799 79.8646C97.6544 79.7072 97.8153 79.5353 97.9608 79.3507L98.1136 79.1286C98.2217 78.982 98.3207 78.8288 98.4101 78.6702L98.432 78.632V78.5834C98.4434 78.5512 98.4593 78.5209 98.4792 78.4932C98.5043 78.4531 98.5265 78.4112 98.5459 78.368C98.5577 78.3403 98.5719 78.3125 98.5865 78.2812C98.6056 78.243 98.6257 78.205 98.6441 78.1598C99.6664 78.3477 100.722 78.1694 101.626 77.6563L121.42 66.4723C122.125 66.072 122.708 65.4872 123.105 64.7806C123.503 64.074 123.7 63.2724 123.677 62.4619C123.656 61.7581 123.463 61.07 123.114 60.4585L123.108 60.4479C123.104 60.4382 123.098 60.4289 123.092 60.4201L117.98 51.3751H118.074L117.726 49.3855C117.698 49.2241 117.639 49.0697 117.551 48.9315C117.463 48.7932 117.348 48.6737 117.214 48.5798C117.08 48.4859 116.928 48.4195 116.768 48.3843C116.608 48.3492 116.443 48.346 116.281 48.375L114.8 45.7536L115.953 45.5521C116.277 45.4951 116.565 45.3122 116.755 45.0435C116.944 44.7749 117.02 44.4423 116.965 44.1182L116.84 43.382C116.813 43.2206 116.754 43.0662 116.667 42.9276C116.58 42.789 116.467 42.669 116.333 42.5745C116.2 42.4799 116.049 42.4126 115.889 42.3766C115.73 42.3406 115.564 42.3365 115.403 42.3646L113.127 42.7571L110.325 37.8022L119.02 36.2918C119.182 36.2635 119.348 36.2676 119.509 36.3038C119.67 36.34 119.822 36.4076 119.956 36.5028C120.091 36.598 120.205 36.719 120.293 36.8585C120.381 36.9981 120.44 37.1535 120.467 37.316L127.316 76.5556C127.35 76.7166 127.351 76.8826 127.32 77.0441C127.289 77.2056 127.226 77.3594 127.135 77.4966Z" fill="#8F37FF"/>
</svg>
