<svg id="Layer_1" data-name="Layer 1" xmlns="http://www.w3.org/2000/svg" viewBox="0 0 211.23 176.85"><defs><style>.cls-1{fill:#f8a221;}.cls-2{fill:#8f37ff;}.cls-3{fill:#fff;}</style></defs><path class="cls-1" d="M332,407.92a.84.84,0,0,1-.92-.31c-1.43-2.14,1.86-3.79,3.15-7.16,1.38-3.62-.12-5.52-2.4-6.94a18.42,18.42,0,0,0-3.94-1.4.43.43,0,0,1-.12-.78,15,15,0,0,0,1.4-1c4.4-3.59,4.69-9.71,2-14.17a14.78,14.78,0,0,0-1.37-1.93.68.68,0,0,1,.19-1c4.56-2.55,8.62-9.85,7.5-18.16-.6-4.51-4.14-9.14-7.82-10.22a.81.81,0,0,1-.37-1.35c6.32-6.2,12.52-16.45,12.09-25.41-.3-6.14-3.66-10.94-9.72-13.91a14.7,14.7,0,0,0-6.54-1.49,19.08,19.08,0,0,0-9.77,2.9,1.16,1.16,0,0,1-1.73-1.09c.07-.85.11-1.64.15-2.34a3.46,3.46,0,0,1,.84-2.1,216.79,216.79,0,0,0,16.77-23l0,0,0-.05c4.2-7.28,4.88-13.75,1.75-16.5a4.86,4.86,0,0,0-3.24-1.25,10.74,10.74,0,0,0-4.44,1.37,23.43,23.43,0,0,1-2.56,1.09,18.41,18.41,0,0,1-4.06.39l-1.07,0c-5.66.35-10.91,3.26-15.38,8.48a3.77,3.77,0,0,1-4.41,1,17.2,17.2,0,0,0-7-1.5l-.76,0c-5.54.27-11.52,4-14.55,9.06a4.42,4.42,0,0,0-.68,3.59c.51,1.77,2.14,2.6,3.87,3.47l.29.15a8.33,8.33,0,0,1,2.55,12.83l-.06.07a5.66,5.66,0,0,1-5.37,1.92,29.59,29.59,0,0,0-5.53-.53,21.36,21.36,0,0,0-13.34,4.21,8.65,8.65,0,0,0-2.38,2.95,4.26,4.26,0,0,0,.39,4.61,8.41,8.41,0,0,0,2.52,1.87c.38.22.78.45,1.19.71a2.59,2.59,0,0,1,0,4.37A84.87,84.87,0,0,1,242,327.74a98.46,98.46,0,0,1-31.54,5,123.18,123.18,0,0,1-39.77-6.82c-9.14-3.22-16.44-4.79-22.32-4.79-12,0-18.14,6.55-18.24,19.45-.1,13.53,10.58,21.26,19.16,27.48,2.16,1.56,4.26,3.08,6,4.57a1.11,1.11,0,0,1-.44,1.93,27.74,27.74,0,0,0-3.31,1c-5.51,2.11-8.65,5.63-8.83,9.91a25.5,25.5,0,0,0,25.66,26.15,28.26,28.26,0,0,0,4.74-.4,20.84,20.84,0,0,0,3.33-.85.87.87,0,0,1,1.11,1.13c-2.54,6.4-4.53,14.21,2.23,20.71l0,0,0,0A16,16,0,0,0,190.42,436a17.32,17.32,0,0,0,3.06-.27c3.81-.7,10-3.21,12.92-12a.79.79,0,0,1,1.33-.29,12.06,12.06,0,0,0,12.09,3.3c3.33-1.11,7.73-4.16,7.46-10.05-.22-4.77,7.66-3.08,10.88-4.32a8.09,8.09,0,0,0,3.56-2.62.66.66,0,0,1,1.14.11,8.06,8.06,0,0,0,7.38,5.09A233.93,233.93,0,0,1,314.07,428c13.24,5.56,21.85.21,24.71-6.49C342.74,413.25,339.92,405.61,332,407.92Z" transform="translate(-130.16 -259.17)"/><path class="cls-2" d="M336.4,414.1h0a3.47,3.47,0,0,0-2.49-2.53,3.94,3.94,0,0,0-3.53.86c-.47.39-.9.74-1.3,1,0-.24-.08-.47-.13-.71a37.36,37.36,0,0,0-1.34-4.24,15.86,15.86,0,0,1-.74-2.09,3.43,3.43,0,0,1-.07-.42h0a19.69,19.69,0,0,1,1.88-3.41,10,10,0,0,0,1-1.46,6,6,0,0,0,.63-1.47,3.34,3.34,0,0,0-1.07-3.34,6.22,6.22,0,0,0-2.57-1.19c-3.28-.86-6.15.2-7.5,2.77-.07.13-.17.33-.3.61-.82,1.69-1.62,3.16-2.39,4.43a8.75,8.75,0,0,0-.7-5.39,7.53,7.53,0,0,0-4.84-3.93,9.84,9.84,0,0,0-6.3.28,20.94,20.94,0,0,0,.78-3.49.34.34,0,0,0,0-.1,9.26,9.26,0,0,0-1.09-5.57,17.78,17.78,0,0,0,8.28,4.47c3.58.91,10.84,1.06,15.08-2.45,2.52-2.1,1.88-6.06.12-9.06-1.63-2.78-3.8-4-5.8-3.2-5.47,2.12-7.55,1-8.19.45a2.09,2.09,0,0,1-.29-.31c5.59-.5,15.43-2.51,18-12.77a12.35,12.35,0,0,0-.92-9,10.79,10.79,0,0,0-7.25-5.56,13.07,13.07,0,0,0-4.5-.31c1.72-1.71,3.66-3.66,5.71-5.81a37,37,0,0,0,9.48-16.41,16.41,16.41,0,0,0-.28-10.18,9.65,9.65,0,0,0-6.77-6.11c-5.53-1.41-10.45-.79-16.48,6.84l-.09.11c-11.22,16-18.6,37.7-22,49.25l-.08.2c-.85,2.18-1.33,2.09-1.62,2a1,1,0,0,1-.5-.19s-.26-.42.1-1.9c.11-.48.5-1.86,1-3.61,1.61-5.71,4.61-16.35,5.36-21.44a4.79,4.79,0,0,0-1.71-4.4c-2.83-2.5-8.68-2.86-10.53-2.34a5,5,0,0,0-3.64,2.91,43.1,43.1,0,0,0-13.43,4.32,28.61,28.61,0,0,0-12.27,12.11,11.79,11.79,0,0,0-5.1-7.59,12,12,0,0,0-3.46-1.46C260.75,338,278,329.46,291,317.72a79.25,79.25,0,0,1-1.86,9.37,3,3,0,0,0,.86,3.12c1.1,1,2.67,1,4.79.18,14.36-5.77,15.16-22.93,15.46-31.51a203.79,203.79,0,0,0,17.91-24.54l.06-.1c2.87-4.94,2.13-8.79.12-10.41a4.13,4.13,0,0,0-5.51.41,3.87,3.87,0,0,1-3,1.19c-.43,0-.86.05-1.32.11-5.87.78-10.84,4.17-14.81,10.15-.58.95-1.16,1.87-1.74,2.79a13.12,13.12,0,0,0-10.8-4.93,13.63,13.63,0,0,0-10.77,6.34,3.32,3.32,0,0,0-.47,2.89,2.72,2.72,0,0,0,1.69,1.67,2.6,2.6,0,0,0,.66.14c2,.12,5.78,2.41,7.8,10.17a2.18,2.18,0,0,0,.25.59c-3,3.92-6,7.48-8.95,10.7l0,0c-7.51-3-15.45-2.48-20.23,1.41a2.89,2.89,0,0,0-1,2.8,2.74,2.74,0,0,0,1.89,2.09c2.46.72,5.36,3.31,6.82,5.32A87.34,87.34,0,0,1,244.65,331c-31.34,10.75-61.41,3.72-72.87.2-13.91-4.27-23.28-4.34-28.66-.22-3.52,2.69-5.19,7.05-5,13,.38,11,11.71,19.22,21.7,26.51,8.46,6.17,16.46,12,14.95,17.21a4.61,4.61,0,0,1-3.64,3.13,4.68,4.68,0,0,1-4.54-1.24c-1.22-1.45-1.2-4,.07-7.18a3.29,3.29,0,0,0-.68-3.64c-2.82-2.84-10.13-.05-10.44.07-3.86,1.5-6.05,3.75-6.16,6.35a21.35,21.35,0,0,0,7.29,16.72,21,21,0,0,0,14,5.27,23.86,23.86,0,0,0,4-.35,17.22,17.22,0,0,0,13.55-12.14,20.74,20.74,0,0,0,.87-4.24,34.75,34.75,0,0,1-1.81,12.19c-.78,2.43-1.75,4.74-2.68,7-2.81,6.7-5.72,13.63-.06,19.15l.08.07a11.73,11.73,0,0,0,7.75,2.73,12.81,12.81,0,0,0,2.31-.21c4.07-.75,9.23-3.72,10.65-13.63.14-1,.25-2.08.35-3.16a3.56,3.56,0,0,0,1.33.71,3.89,3.89,0,0,0,2.06,0,19.17,19.17,0,0,0,4.18,5.78,6.87,6.87,0,0,0,4.55,1.8,7.27,7.27,0,0,0,2.31-.39,6.14,6.14,0,0,0,4.08-3.81,8,8,0,0,0-1.39-6.9,8.24,8.24,0,0,0,4.18,0,8.5,8.5,0,0,0,4.57-2.9,4.26,4.26,0,0,0,4.08,1.47,4.56,4.56,0,0,0,3.1-1.71,6.64,6.64,0,0,0,1.09-3.2,18.2,18.2,0,0,1,.76-3.24c.12-.35.24-.68.36-1a3.49,3.49,0,0,0,.72.2c2,.37,4.58-.89,5.9-3.92a39.31,39.31,0,0,0-.44,4.14,14.7,14.7,0,0,0,.32,5.41,4.74,4.74,0,0,0,7.9,2.14,7,7,0,0,0,1.23-2,8.06,8.06,0,0,0,.49,1.6,4.51,4.51,0,0,0,3.94,2.88,4.58,4.58,0,0,0,3.75-1.29,6.43,6.43,0,0,0,1.32-2.29,6.18,6.18,0,0,0,.93,1.87,6,6,0,0,0,4.7,2.35,9.82,9.82,0,0,0,4.52-.78,6.32,6.32,0,0,0,5.21,2.84,7.82,7.82,0,0,0,3.57-.68,7.72,7.72,0,0,0,6,3.14,11.54,11.54,0,0,0,5.74-.94l.52-.24a11.46,11.46,0,0,0,6.67,4.58,13.11,13.11,0,0,0,8-.25l.33-.13a6.38,6.38,0,0,0,.82,1.89,7.22,7.22,0,0,0,4.52,3.09,8.57,8.57,0,0,0,2.21.3,7.91,7.91,0,0,0,3.09-.63,12.55,12.55,0,0,0,5.24-.1,15.43,15.43,0,0,0,5.92-3.39,7.37,7.37,0,0,0,2.29-4A5.56,5.56,0,0,0,336.4,414.1Zm-42.23-6,1.39-1.28c0,.16,0,.31-.06.46a10.65,10.65,0,0,1-1.27.79Zm7.51-25.89a6.6,6.6,0,0,0-5-.2,6.15,6.15,0,0,0,2-2.93q.64-1.89,1.32-3.54a14,14,0,0,0,2.21,6.62c.17.27.37.52.55.78A6.07,6.07,0,0,0,301.68,382.21ZM287,392c-.06.13-.14.26-.2.39a1.67,1.67,0,0,1-.08-.2Zm2.93-8.5a9.11,9.11,0,0,0,4.15-.17,16,16,0,0,0-2.18,1.77,22.22,22.22,0,0,0-2.46,2.87c0-.17,0-.34.07-.53a4.94,4.94,0,0,0-1.55-4.06,5.76,5.76,0,0,0-3.1-1.43m-49.77-19.51a8.43,8.43,0,0,1-2.83,2.24,12.77,12.77,0,0,1,.37-5c.77-2.61,1.94-2.91,2.38-3s.51,0,.56,0,.27.18.42.76A7.18,7.18,0,0,1,235.13,362.42Zm-32.84,5.13c.78-.95,1.26-1.1,1.39-1.13a1.57,1.57,0,0,1,.29,0,.84.84,0,0,1,.57.2,3.23,3.23,0,0,1,.85,1.77,15.93,15.93,0,0,1,.21,6.44,13.65,13.65,0,0,1-2.15,5.47,10.36,10.36,0,0,1-.94,1.18c-.12-.53-.25-1.09-.39-1.67-.5-2.15-.93-4-1.3-5.65A7.6,7.6,0,0,1,202.29,367.55Zm62.24-4.41c0-7.14,5.42-11.23,9.24-13-.38,3-1,7.3-1.86,11.2a5,5,0,0,1-5.13,3.87A2.13,2.13,0,0,1,264.53,363.14ZM320.59,323c.33-.43.62-.79.88-1.08-.07.4-.16.87-.3,1.43a27.9,27.9,0,0,1-5.84,10.49c-.87,1.06-1.79,2.09-2.74,3.08q1-2.18,2.09-4.2A68.34,68.34,0,0,1,320.59,323Zm-4.06,37.14h.06c.57,0,.7.18.75.57a2.59,2.59,0,0,1-2.17,2.64c-.79.19-2.81.46-4.6.69-1.29.17-2.59.34-3.6.5A14,14,0,0,1,316.53,360.18ZM182.89,372.81c-3.59-3.58-6.86-6.64-9.74-9.35-7.48-7-12.42-11.63-11.24-14.46.86-2.05,5.4-2.28,13.88-.72,14.32,2.66,31.9,2.36,49.66-.89a20.18,20.18,0,0,0-2.22,2.12,22.15,22.15,0,0,0-5,9.87,13.82,13.82,0,0,0-3.77-4.92A12.32,12.32,0,0,0,204.32,352a13.69,13.69,0,0,0-6.11,2.77,15.34,15.34,0,0,0-1.81,1.73c-.31-.79-.63-1.57-1-2.26-1.64-3.53-7.62-1.92-10.54-.58-5,2.29-7.09,5.92-5.48,9.5.7,1.52,1.53,3.12,2.41,4.83,1.43,2.74,3,5.7,4.25,8.9A21,21,0,0,0,182.89,372.81Zm65.49,21.27a4.37,4.37,0,0,0-1-2.91,5.14,5.14,0,0,0-4.88-1.48h0a8.32,8.32,0,0,0-3.46,1.52c-.25.18-.49.38-.73.59a3,3,0,0,0-1.19-.79,4.32,4.32,0,0,0-2.22-.12,6.41,6.41,0,0,0-3.08,1.23,4.87,4.87,0,0,0-1.69,2.68l-.12-.08a7.24,7.24,0,0,0-5.85-.84,9.31,9.31,0,0,0-3.32,1.56,8.9,8.9,0,0,0-.71-2.19,7,7,0,0,0-1.26-1.81,16.64,16.64,0,0,0,11.95-5.14,23,23,0,0,0,12.88,0,43.21,43.21,0,0,0,12.38-5.75,14.68,14.68,0,0,0,6.94,1.78,15.69,15.69,0,0,0,11.86-4.55,10.28,10.28,0,0,0,3.94,3.26,10.61,10.61,0,0,0,3.59.95,6.05,6.05,0,0,0-2.52,1.16,5.46,5.46,0,0,0-2.12,4.06,5.37,5.37,0,0,0,1.06,3.75,5.71,5.71,0,0,0-1.19,1.91,4.76,4.76,0,0,0-1.07-2.7,4.83,4.83,0,0,0-3.57-1.64,8.43,8.43,0,0,0-5.59,2,4.09,4.09,0,0,0-.53-.91,4.71,4.71,0,0,0-3.66-1.73,7.46,7.46,0,0,0-4.35,1.25l-.75.51a3.1,3.1,0,0,0-.71-.73,4.23,4.23,0,0,0-2.38-.75,6.24,6.24,0,0,0-3.65.77,5.36,5.36,0,0,0-2.26,2.89C248.83,392.64,248.59,393.36,248.38,394.08Z" transform="translate(-130.16 -259.17)"/><path class="cls-3" d="M291.43,293.13a131.17,131.17,0,0,0,8.05-13.46,10.76,10.76,0,0,0-18,.53c-.16.25-.45.76-.09.89C284.25,281.28,289.07,284.06,291.43,293.13Z" transform="translate(-130.16 -259.17)"/><path class="cls-3" d="M210.73,386.58c7.06,3.05,15,.7,18.25-4.29,3.66,1.68,8,1.89,13.09.6a39.53,39.53,0,0,0,12.9-6.37,11.83,11.83,0,0,0,7.09,2.32,13.4,13.4,0,0,0,12.32-6.66c1.79,6,7.23,7.59,12.23,5.44-.2,2.84,7.37,4,8.75-.35,5.35-15.8,13.58-20.45,20.12-20.59,4.75-.1,4.45,6.89-.73,8.14-1.51.37-5.89.83-8.46,1.24a4.68,4.68,0,0,0-4.27,3.6,12.4,12.4,0,0,0,1.35,10.16q2.81,4.41,8.87,6c3.31.84,9.57.77,12.86-2,2.36-1.95-1.28-8.74-3.18-8-11.13,4.32-13.06-2.45-12.05-4.53,15.42-.71,17.56-8.16,18.3-11.05a9.86,9.86,0,0,0-.71-7.22,8.36,8.36,0,0,0-5.66-4.3c-2.83-.72-6.53-.16-10.75,2-5,2.79,1.92-3,10.78-12.3a34.48,34.48,0,0,0,8.86-15.3,14,14,0,0,0-.18-8.64,7.15,7.15,0,0,0-5.07-4.61c-4.52-1.15-8.5-.85-13.9,6-10.44,14.89-17.83,35.51-21.69,48.61l0,0c-.39,1-1.46,4.46-4.52,3.86s-2.85-3.09-2.36-5.13,5.35-18.31,6.3-24.83c.54-3.63-7.38-4.44-9.05-4s-2.17,1.06-2.33,2.92c-.57-.35-27.51,2.19-28.24,26.5a22.11,22.11,0,0,0,.26,3.53c-3.4,6.71-11,9.2-15.16,7.62a1.46,1.46,0,0,1,.23-2.74c12.93-3.81,13.58-16.2,12.89-19.71-2-10.07-11.93-8.38-15.06-7.59a17,17,0,0,0-8.69,5.2,19.83,19.83,0,0,0-4.56,9.25,23.86,23.86,0,0,0,.3,10.91,21.82,21.82,0,0,0,2.15,5.46l-.07,0c-.74,2.69-3.32,5.49-5.73,4.92a1,1,0,0,1-.68-1.37,23.6,23.6,0,0,0,1.81-6.53,22,22,0,0,0-.41-7.83c-.84-3.58-2.57-7.72-5-9.58a9.89,9.89,0,0,0-8.14-1.95,11.13,11.13,0,0,0-5,2.27,17,17,0,0,0-4.08,5.16c-.19-.58-1.42-4.24-2.51-6.59s-13.86,1.54-11.47,6.82c4.19,9.17,14.14,22.58,8,41.24-3.23,10-9.32,17.76-3.37,23.56a9.78,9.78,0,0,0,7.94,1.93q7.16-1.33,8.62-11.54t-.82-24.6A22.08,22.08,0,0,0,210.73,386.58Zm95-43.43q2.78-6.81,5.76-12.54a70.48,70.48,0,0,1,6.15-10.09c1.84-2.41,3.24-3.49,4.18-3.25q1,.25,1.23,1.74a10.83,10.83,0,0,1-.43,4,30.19,30.19,0,0,1-6.33,11.46,57.68,57.68,0,0,1-9.73,9.33A.55.55,0,0,1,305.7,343.15Zm-31.17,2.67a.84.84,0,0,1,1.05.88c-.28,2.46-1,8.68-2.23,14.16-1.53,7-11.83,8-12.32,1.39C260.93,351.63,270.71,346.83,274.53,345.82Zm-45.26,12.1c.78-2.65,2.17-4.22,4.16-4.73a3,3,0,0,1,2.54.34,3.55,3.55,0,0,1,1.48,2.23,9.6,9.6,0,0,1-1.34,7.19,10.52,10.52,0,0,1-6.63,3.84.16.16,0,0,1-.17-.13A16.5,16.5,0,0,1,229.27,357.92Zm-37.54,60.56c-5.48.19,1.79-9.16,3.06-20C197.39,408.21,195.11,418.36,191.73,418.48Zm8-34.5q-.35-1.77-1-4.62c-.51-2.16-.94-4.05-1.31-5.67a10.12,10.12,0,0,1,2-8.74,5.13,5.13,0,0,1,2.87-2,3.42,3.42,0,0,1,2.85.66,5.48,5.48,0,0,1,1.75,3.17,18.51,18.51,0,0,1,.23,7.44,16.11,16.11,0,0,1-2.55,6.46,10.7,10.7,0,0,1-4.09,3.64A.52.52,0,0,1,199.71,384Z" transform="translate(-130.16 -259.17)"/><path class="cls-3" d="M280.43,384.11a3,3,0,0,0-1.18,2.26,2.88,2.88,0,0,0,.66,2.22,3.32,3.32,0,0,0,2.34.91,3.62,3.62,0,0,0,2.66-.77,3.31,3.31,0,0,0,1.14-2.46,2.5,2.5,0,0,0-.75-2.08,3.48,3.48,0,0,0-2.22-.85A3.76,3.76,0,0,0,280.43,384.11Z" transform="translate(-130.16 -259.17)"/><path class="cls-3" d="M333,413.76a1,1,0,0,0-.72-.78,1.42,1.42,0,0,0-1.28.35q-3.66,3.07-5.91,3.42c.19-.54.32-1,.4-1.28a6.8,6.8,0,0,0,0-3.17,31.62,31.62,0,0,0-1.22-3.85,18.65,18.65,0,0,1-.85-2.44,3.47,3.47,0,0,1-.06-1.65,19.94,19.94,0,0,1,2.37-4.38,7.49,7.49,0,0,0,.75-1.08,3.83,3.83,0,0,0,.38-.84.81.81,0,0,0-.28-.86,4,4,0,0,0-1.57-.66c-1.66-.44-3.7-.29-4.64,1.51-.81,1.53-7,15.77-15.16,14.2a4,4,0,0,1-3.22-3.19c3.33,0,5.83-.6,7.52-1.76a8.1,8.1,0,0,0,3.31-4.93,6.68,6.68,0,0,0-.3-4.72,5,5,0,0,0-3.28-2.63,7.29,7.29,0,0,0-5,.32,10.63,10.63,0,0,0-4.27,3.47,15.44,15.44,0,0,0-2.62,5.63,14.79,14.79,0,0,0-.46,3.18,18.72,18.72,0,0,1-2.54,1.68,5.27,5.27,0,0,1-2.86.53,2.24,2.24,0,0,1-1.53-.69,3.29,3.29,0,0,1-.63-1.94c3.32-3,6.6-5.89,8.84-9a19.93,19.93,0,0,0,3.75-9.11c.5-5.41-3.76-8.52-9.26-3.2-5.95,5.76-7.47,15.12-7.82,17.71-.06.43-.08.82-.1,1.22-.32.32-.63.6-.88.82a2.83,2.83,0,0,1-1.76.89,1.06,1.06,0,0,1-1-.7,4.43,4.43,0,0,1-.19-1.84,37.12,37.12,0,0,1,1.27-5.86,54.61,54.61,0,0,0,1.29-5.48c.06-.9-.56-1.39-1.84-1.46a2.87,2.87,0,0,0-1.85.36,3.52,3.52,0,0,0-1,1.69c-.55,1.59-1.32,4.22-1.73,6.07-.21,1-.37,1.87-.5,2.67a22.12,22.12,0,0,1-1.73,1.66,2.9,2.9,0,0,1-1.85.87c-.73-.05-1.07-.6-1-1.66a29.48,29.48,0,0,1,1-4.52,35.34,35.34,0,0,0,1.17-5.55q.15-2.58-2.31-2.73-2-.12-4.44,2a19.83,19.83,0,0,0-4.62,6.85c.1-.47.28-1.17.54-2.11a26.78,26.78,0,0,0,1-4.57,3,3,0,0,0-.43-2,2.39,2.39,0,0,0-1.84-.74,4.89,4.89,0,0,0-2.87.88,11.82,11.82,0,0,0-3.11,3,21.92,21.92,0,0,0-2.75,5.1c.22-2.86,1.83-7.26,1.86-7.69a.86.86,0,0,0-.26-.77,2.08,2.08,0,0,0-1-.26,3.8,3.8,0,0,0-2.2.4,3,3,0,0,0-1.22,1.63,28.84,28.84,0,0,0-1.78,9,12.59,12.59,0,0,0,.22,4.54,2.07,2.07,0,0,0,1.93,1.7,2.11,2.11,0,0,0,1.76-.55,6.67,6.67,0,0,0,1.21-2.55,28.08,28.08,0,0,1,3.43-7.17c.64-.92,1.14-1.37,1.52-1.34s.4.23.38.66-.2,1.63-.5,3.31a35.23,35.23,0,0,0-.64,4.35,6.71,6.71,0,0,0,.44,3.07,2,2,0,0,0,1.79,1.36,2.18,2.18,0,0,0,1.8-.53,6.33,6.33,0,0,0,1.12-2.48,29.43,29.43,0,0,1,1.75-4.52,19.91,19.91,0,0,1,2-3.4c.66-.85,1.15-1.27,1.48-1.25s.4.24.38.66a21.52,21.52,0,0,1-.7,3.43,26.17,26.17,0,0,0-.77,3.94,5.14,5.14,0,0,0,.78,3.45,3.58,3.58,0,0,0,2.84,1.34,7,7,0,0,0,4.33-1.09,14.91,14.91,0,0,0,1.27-.91,7.16,7.16,0,0,0,.67,2,3.88,3.88,0,0,0,3.46,2,6.85,6.85,0,0,0,4.5-1.72,9.57,9.57,0,0,0,.45,1.24,5.2,5.2,0,0,0,4.65,2.95,9.1,9.1,0,0,0,4.52-.73,16.25,16.25,0,0,0,2.6-1.51,9.31,9.31,0,0,0,.5,1.27,8.68,8.68,0,0,0,5.79,4.45,10.56,10.56,0,0,0,6.41-.18,20.86,20.86,0,0,0,8.76-7.46c2,3,1.5,5.21,1,6.2l-1.06-.45a7.67,7.67,0,0,0-1.24-.45,2.88,2.88,0,0,0-3.84,2.14,3.63,3.63,0,0,0,.54,2.81,4.82,4.82,0,0,0,3,2,5.59,5.59,0,0,0,4.33-.53,10.56,10.56,0,0,0,4.95.1,13.33,13.33,0,0,0,4.92-2.87,4.83,4.83,0,0,0,1.48-2.67A3.2,3.2,0,0,0,333,413.76Zm-30.69-8.58a10.46,10.46,0,0,1,2.2-4.52c1-1.14,2-1.57,3-1.3a1.48,1.48,0,0,1,1,.85,2.32,2.32,0,0,1,.06,1.53,4,4,0,0,1-2.09,2.63,8.56,8.56,0,0,1-4.16.91Zm-10.71-9.76c.92-2.57,3.85-7.91,5.4-7.39s-1.42,9.33-7.14,13.23A26.44,26.44,0,0,1,291.59,395.42Z" transform="translate(-130.16 -259.17)"/><path class="cls-3" d="M241.88,391.16a5.67,5.67,0,0,0-2.39,1.09,9.84,9.84,0,0,0-2.44,2.74,16.87,16.87,0,0,0-2,4.61,18.22,18.22,0,0,1,0-2.28q.09-.93.27-2.19a10.64,10.64,0,0,0,.22-2.24.6.6,0,0,0-.35-.53,2.23,2.23,0,0,0-1,0,4.13,4.13,0,0,0-1.92.71,2.38,2.38,0,0,0-.83,1.44,22.18,22.18,0,0,0-.47,4c-.38.16-.76.31-1.09.42a5.7,5.7,0,0,0-2.33-3.1,4.76,4.76,0,0,0-3.88-.51,6.78,6.78,0,0,0-3.13,1.74,6.86,6.86,0,0,0-1.82,3.1,7.65,7.65,0,0,0-.18,3.28l0,0c-.14,1.09-2,3.07-5.5,2.91h-.06q6-8.39,3.81-13a3.75,3.75,0,0,0-4.86-2,6.45,6.45,0,0,0-4,4.46,18.2,18.2,0,0,0-.56,8,28.07,28.07,0,0,0,.87,4.25c-.36.3-.73.58-1.12.85-2.71,1.8-.44,4.56,1.74,2.05.1-.11.18-.22.27-.34.22.56.45,1.11.71,1.64a18.69,18.69,0,0,0,4.06,6,4.3,4.3,0,0,0,4.43.93,3.67,3.67,0,0,0,2.5-2.21c.51-1.6.07-5-4.88-8.43A6.86,6.86,0,0,0,220.3,407a4.93,4.93,0,0,0,2,1.27,5.54,5.54,0,0,0,3.16,0,6.06,6.06,0,0,0,3.44-2.3,7.11,7.11,0,0,0,1.45-4.18c.31-.09.58-.21.88-.32,0,.22,0,.44.06.66a10,10,0,0,0,1.05,3.76,1.83,1.83,0,0,0,2,.92,2.21,2.21,0,0,0,1.49-.75,4.53,4.53,0,0,0,.62-2,20.54,20.54,0,0,1,.86-3.7,14.18,14.18,0,0,1,1.31-2.92c.47-.76.87-1.17,1.21-1.22s.4.1.45.42c-.1,2,3.14,1.86,4.34-1.76S243.36,390.93,241.88,391.16Zm-30.63,8.06a18.09,18.09,0,0,1,.15-3.91c.19-1,.48-1.61.88-1.75.56-.19,1,.13,1.44,1a7.13,7.13,0,0,1,.36,4.28,15.16,15.16,0,0,1-2.22,5.27A37.09,37.09,0,0,1,211.25,399.22Zm6.83,15.17c.68,1.42.69,2.25,0,2.47-.36.12-1-.53-1.84-2s-1.65-2.85-2.33-4.25c-.13-.27-.25-.54-.37-.83A14.13,14.13,0,0,1,218.08,414.39Zm8.48-10.14a2.36,2.36,0,0,1-1.49,1.11,1.8,1.8,0,0,1-1.64-.41,3.45,3.45,0,0,1-1.1-2.1,5.1,5.1,0,0,1,.17-3.13,2.55,2.55,0,0,1,1.73-1.53l.15,0a4.31,4.31,0,0,0,.09.88,4,4,0,0,0,.89,1.82,3.77,3.77,0,0,0,1.7,1.14A4,4,0,0,1,226.56,404.25Z" transform="translate(-130.16 -259.17)"/><path class="cls-3" d="M180.13,373.58c-14.44-14.4-24-20.66-21.52-26.54,1.55-3.72,6.95-4,16.64-2.21,32.42,6,88.92-3.58,117.91-34.75a87.63,87.63,0,0,1-2.63,16.65c-.33,1.22,1.48.67,2.3.34,12.29-4.94,13.55-19.41,13.91-29.65v-.52c7.44-8.35,13.15-17,18.29-24.91,3.23-5.57.79-9-1.55-6.9s-3.85,1.68-5.7,1.93c-5.74.76-9.86,4.24-13,9-9.91,16.05-19.69,29-31,38.92a72.6,72.6,0,0,0,5.53-7.57c-6.63-2.68-13.66-2.27-17.71,1-.16.13-.13.5.05.55,4,1.17,8.39,5.75,9.3,8.36a90,90,0,0,1-26.5,15.09c-34.19,11.73-67,2.52-74.43.23-23.21-7.12-30.82-1.53-30.41,10.26.66,19.1,40.62,30.4,36.56,44.5-2.35,8.14-18.35,6.92-12.84-6.9,1.32-3.31-12.28-.68-12.46,3.8a18.87,18.87,0,0,0,22.42,19.07C186.46,401.08,189.94,383.37,180.13,373.58Zm113-63.51h0v0Z" transform="translate(-130.16 -259.17)"/></svg>